<svg width="24" height="24" viewBox="0 0 24 24" fill="none" xmlns="http://www.w3.org/2000/svg">
<rect width="24" height="24" rx="12" fill="#FFCABD"/>
<path d="M12 6C10.6739 6 9.40215 6.49167 8.46447 7.36684C7.52678 8.242 7 9.42899 7 10.6667C7 14.4444 12 18 12 18C12 18 17 14.4444 17 10.6667C17 9.42899 16.4732 8.242 15.5355 7.36684C14.5979 6.49167 13.3261 6 12 6ZM12 12.8889C11.5291 12.8889 11.0688 12.7586 10.6772 12.5144C10.2857 12.2702 9.9805 11.9231 9.80029 11.5171C9.62008 11.111 9.57293 10.6642 9.6648 10.2331C9.75667 9.80206 9.98343 9.4061 10.3164 9.09532C10.6494 8.78453 11.0736 8.57289 11.5355 8.48714C11.9974 8.4014 12.4761 8.44541 12.9112 8.6136C13.3462 8.7818 13.7181 9.06662 13.9797 9.43207C14.2413 9.79751 14.381 10.2272 14.381 10.6667C14.381 11.256 14.1301 11.8213 13.6836 12.238C13.2371 12.6548 12.6315 12.8889 12 12.8889Z" fill="#F05124"/>
</svg>
