<svg width="48" height="48" viewBox="0 0 48 48" fill="none" xmlns="http://www.w3.org/2000/svg">
<path d="M43.6878 5H4.31251C3.96441 5 3.63057 5.13906 3.38442 5.3866C3.13828 5.63413 3 5.96986 3 6.31992V29.3811C3 29.7311 3.13828 30.0668 3.38442 30.3144C3.63057 30.5619 3.96441 30.701 4.31251 30.701H15.8678C15.9138 31.8451 15.4909 33.698 17.1803 33.7756H22.6876V40.3602H14.9084C14.5603 40.3602 14.2264 40.4992 13.9803 40.7467C13.7342 40.9943 13.5959 41.33 13.5959 41.6801C13.5959 42.0301 13.7342 42.3659 13.9803 42.6134C14.2264 42.8609 14.5603 43 14.9084 43H33.0814C33.4295 43 33.7633 42.8609 34.0095 42.6134C34.2556 42.3659 34.3939 42.0301 34.3939 41.6801C34.3939 41.33 34.2556 40.9943 34.0095 40.7467C33.7633 40.4992 33.4295 40.3602 33.0814 40.3602H25.3124V33.7756H30.8097C32.5065 33.6898 32.0728 31.8496 32.1222 30.701H43.6875C44.0356 30.701 44.3694 30.5619 44.6156 30.3144C44.8617 30.0668 45 29.7311 45 29.3811V6.31992C45 5.96986 44.8617 5.63413 44.6156 5.3866C44.3694 5.13906 44.0359 5 43.6878 5ZM29.4974 31.136H18.4926V27.6263H29.4974V31.136ZM42.3752 28.0614H32.1225C32.0752 26.9173 32.5015 25.0657 30.81 24.9865H17.1801C15.4859 25.0705 15.9156 26.9125 15.8676 28.0614H5.62502V7.63984H42.3752V28.0614Z" fill="#F05124"/>
<path d="M14.9089 15.3271H33.0819C34.8015 15.2993 34.8115 12.717 33.0819 12.6872H14.9089C13.1892 12.7149 13.1793 15.2972 14.9089 15.3271ZM14.9089 21.4766H33.0819C34.8015 21.4488 34.8115 18.8666 33.0819 18.8367H14.9089C13.1892 18.8644 13.1793 21.4467 14.9089 21.4766Z" fill="#F05124"/>
</svg>
