<svg width="31" height="31" viewBox="0 0 31 31" fill="none" xmlns="http://www.w3.org/2000/svg">
<rect width="31" height="31" rx="15.5" fill="#FFCABD"/>
<path d="M14.7469 16.2817V24C14.6994 23.9837 14.6546 23.961 14.6139 23.9327L8.8429 20.6453C8.58486 20.5046 8.37074 20.3015 8.22236 20.0568C8.06822 19.8012 7.99152 19.5102 8.00074 19.216V12.4309L14.7469 16.2817ZM23 12.4309V19.2412C22.9883 19.5217 22.9062 19.7955 22.7607 20.0399C22.622 20.2909 22.4095 20.4983 22.149 20.6369L16.378 23.9243L16.2539 23.9832V16.2733L19.1438 14.5917V16.9207C19.1438 17.1102 19.2232 17.292 19.3645 17.426C19.5058 17.56 19.6975 17.6353 19.8973 17.6353C20.0972 17.6353 20.2888 17.56 20.4301 17.426C20.5714 17.292 20.6508 17.1102 20.6508 16.9207V13.7761L23 12.4309ZM18.408 13.3978L15.5004 15.0793L8.70993 11.2118L8.80744 11.1529L11.5201 9.78245L18.408 13.3978ZM22.282 11.195L19.8796 12.557L13.1069 8.95849L14.5784 8.22701C14.8478 8.07882 15.1535 8.00052 15.4649 8C15.7765 8.00685 16.0813 8.0878 16.3514 8.23542L22.0869 11.1445C22.1552 11.1469 22.2219 11.1641 22.282 11.195Z" fill="#F05124"/>
</svg>
