<svg width="31" height="31" viewBox="0 0 31 31" fill="none" xmlns="http://www.w3.org/2000/svg">
<rect width="31" height="31" rx="15.5" fill="#FFCABD"/>
<path d="M9.59375 8.9375C8.72351 8.9375 7.88891 9.2832 7.27356 9.89856C6.6582 10.5139 6.3125 11.3485 6.3125 12.2188V12.875H24.6875V12.2188C24.6875 11.3485 24.3418 10.5139 23.7264 9.89856C23.1111 9.2832 22.2765 8.9375 21.4062 8.9375H9.59375ZM24.6875 14.1875H6.3125V18.7812C6.3125 19.6515 6.6582 20.4861 7.27356 21.1014C7.88891 21.7168 8.72351 22.0625 9.59375 22.0625H21.4062C22.2765 22.0625 23.1111 21.7168 23.7264 21.1014C24.3418 20.4861 24.6875 19.6515 24.6875 18.7812V14.1875ZM18.7812 18.125H21.4062C21.5803 18.125 21.7472 18.1941 21.8703 18.3172C21.9934 18.4403 22.0625 18.6072 22.0625 18.7812C22.0625 18.9553 21.9934 19.1222 21.8703 19.2453C21.7472 19.3684 21.5803 19.4375 21.4062 19.4375H18.7812C18.6072 19.4375 18.4403 19.3684 18.3172 19.2453C18.1941 19.1222 18.125 18.9553 18.125 18.7812C18.125 18.6072 18.1941 18.4403 18.3172 18.3172C18.4403 18.1941 18.6072 18.125 18.7812 18.125Z" fill="#F05124"/>
</svg>
