<svg width="96" height="96" viewBox="0 0 96 96" fill="none" xmlns="http://www.w3.org/2000/svg">
<rect width="96" height="96" rx="16" fill="#FFF4F0"/>
<g clip-path="url(#clip0_2002_19747)">
<path fill-rule="evenodd" clip-rule="evenodd" d="M20.5 48C20.5 40.7065 23.3973 33.7118 28.5546 28.5546C33.7118 23.3973 40.7065 20.5 48 20.5C55.2935 20.5 62.2882 23.3973 67.4454 28.5546C72.6027 33.7118 75.5 40.7065 75.5 48C75.5 55.2935 72.6027 62.2882 67.4454 67.4454C62.2882 72.6027 55.2935 75.5 48 75.5C40.7065 75.5 33.7118 72.6027 28.5546 67.4454C23.3973 62.2882 20.5 55.2935 20.5 48ZM46.4307 59.77L62.2633 39.9773L59.4033 37.6893L45.9027 54.5597L36.34 46.592L33.9933 49.408L46.4307 59.77Z" fill="#F05124"/>
</g>
<defs>
<clipPath id="clip0_2002_19747">
<rect width="55" height="55" fill="white" transform="translate(20.5 20.5)"/>
</clipPath>
</defs>
</svg>
