<svg width="16" height="16" viewBox="0 0 16 16" fill="none" xmlns="http://www.w3.org/2000/svg">
<path d="M8 0C6.41775 0 4.87103 0.469192 3.55544 1.34824C2.23985 2.22729 1.21447 3.47672 0.608967 4.93853C0.00346631 6.40034 -0.15496 8.00887 0.153721 9.56072C0.462403 11.1126 1.22433 12.538 2.34315 13.6569C3.46197 14.7757 4.88743 15.5376 6.43928 15.8463C7.99113 16.155 9.59966 15.9965 11.0615 15.391C12.5233 14.7855 13.7727 13.7602 14.6518 12.4446C15.5308 11.129 16 9.58225 16 8C15.9976 5.87901 15.154 3.84557 13.6542 2.3458C12.1544 0.846033 10.121 0.00240612 8 0ZM8 14.5455C6.70543 14.5455 5.43994 14.1616 4.36354 13.4423C3.28715 12.7231 2.4482 11.7009 1.95279 10.5048C1.45738 9.30881 1.32776 7.99274 1.58032 6.72304C1.83288 5.45335 2.45627 4.28706 3.37167 3.37166C4.28707 2.45627 5.45335 1.83287 6.72305 1.58031C7.99274 1.32776 9.30881 1.45738 10.5048 1.95279C11.7009 2.4482 12.7231 3.28715 13.4423 4.36354C14.1616 5.43993 14.5455 6.70543 14.5455 8C14.5435 9.73537 13.8533 11.3991 12.6262 12.6262C11.3991 13.8533 9.73537 14.5435 8 14.5455Z" fill="black"/>
<path d="M8.72727 7.69891V5.09091C8.72727 4.89802 8.65065 4.71304 8.51426 4.57665C8.37787 4.44026 8.19289 4.36364 8 4.36364C7.80712 4.36364 7.62213 4.44026 7.48574 4.57665C7.34935 4.71304 7.27273 4.89802 7.27273 5.09091V8L7.27346 8.00349C7.27472 8.19505 7.35104 8.37848 7.48604 8.5144L9.54262 10.5713C9.60976 10.6406 9.69 10.6957 9.77867 10.7337C9.86734 10.7716 9.96267 10.7915 10.0591 10.7922C10.1555 10.793 10.2512 10.7745 10.3404 10.738C10.4296 10.7014 10.5107 10.6475 10.5789 10.5793C10.6471 10.5111 10.701 10.43 10.7376 10.3408C10.7742 10.2515 10.7926 10.1559 10.7919 10.0595C10.7912 9.96304 10.7713 9.86772 10.7334 9.77905C10.6954 9.69037 10.6403 9.61013 10.5711 9.54298L8.72727 7.69891Z" fill="black"/>
</svg>
