<svg width="48" height="48" viewBox="0 0 48 48" fill="none" xmlns="http://www.w3.org/2000/svg">
<path d="M36.7802 17.7836C36.7802 18.56 36.1491 19.1894 35.3706 19.1894C34.5921 19.1894 33.961 18.56 33.961 17.7836C33.961 17.0072 34.5921 16.3779 35.3706 16.3779C36.1491 16.3779 36.7802 17.0072 36.7802 17.7836Z" fill="#F05124"/>
<path d="M42.4185 17.7836C42.4185 18.56 41.7874 19.1894 41.0089 19.1894C40.2304 19.1894 39.5993 18.56 39.5993 17.7836C39.5993 17.0072 40.2304 16.3779 41.0089 16.3779C41.7874 16.3779 42.4185 17.0072 42.4185 17.7836Z" fill="#F05124"/>
<path d="M16.632 39.6509V34.6526C16.632 33.9073 17.2385 33.3035 17.9858 33.3035C18.733 33.3036 19.3386 33.9074 19.3386 34.6526V39.6509C19.3386 40.3961 18.733 40.9999 17.9858 41C17.2385 41 16.632 40.3962 16.632 39.6509ZM22.6462 39.6509V34.6526C22.6462 33.9073 23.2527 33.3035 24 33.3035C24.7472 33.3036 25.3528 33.9074 25.3528 34.6526V39.6509C25.3528 40.3961 24.7472 40.9999 24 41C23.2527 41 22.6462 40.3962 22.6462 39.6509ZM28.6604 39.6509V34.6526C28.6604 33.9073 29.2668 33.3035 30.0142 33.3035C30.7614 33.3036 31.367 33.9074 31.367 34.6526V39.6509C31.367 40.3961 30.7614 40.9999 30.0142 41C29.2668 41 28.6604 40.3962 28.6604 39.6509ZM45.2944 12.1606C45.2944 11.3533 44.6376 10.6983 43.828 10.6983H4.17196C3.36238 10.6983 2.7056 11.3533 2.7056 12.1606V26.2181C2.70561 27.0255 3.36238 27.6805 4.17196 27.6805H43.828C44.6376 27.6805 45.2944 27.0255 45.2944 26.2181V12.1606ZM41.0089 22.0575C41.7562 22.0575 42.3617 22.6613 42.3617 23.4066C42.3617 24.152 41.7562 24.7558 41.0089 24.7558H6.99111C6.24377 24.7558 5.63831 24.1519 5.63831 23.4066C5.63831 22.6613 6.24377 22.0575 6.99111 22.0575H41.0089ZM35.4274 17.7836C35.4274 17.7526 35.4018 17.727 35.3706 17.727C35.3394 17.727 35.3138 17.7526 35.3138 17.7836C35.3138 17.8147 35.3395 17.8403 35.3706 17.8403C35.4017 17.8403 35.4274 17.8147 35.4274 17.7836ZM41.0657 17.7836C41.0657 17.7526 41.0401 17.727 41.0089 17.727C40.9777 17.727 40.9521 17.7526 40.9521 17.7836C40.9521 17.8147 40.9778 17.8402 41.0089 17.8403C41.04 17.8403 41.0657 17.8147 41.0657 17.7836ZM38.133 17.7836C38.133 19.3053 36.8964 20.5385 35.3706 20.5385C33.8448 20.5385 32.6082 19.3053 32.6082 17.7836C32.6082 16.2618 33.8448 15.0288 35.3706 15.0288C36.8963 15.0288 38.133 16.2618 38.133 17.7836ZM43.7713 17.7836C43.7713 19.3053 42.5347 20.5385 41.0089 20.5385C39.4831 20.5385 38.2465 19.3053 38.2465 17.7836C38.2465 16.2618 39.4831 15.0288 41.0089 15.0288C42.5346 15.0288 43.7713 16.2618 43.7713 17.7836ZM48 26.2181C48 28.5162 46.1323 30.3788 43.828 30.3788H4.17196C1.86768 30.3788 1.03339e-06 28.5162 0 26.2181V12.1606C0 9.86261 1.86768 8 4.17196 8H43.828C46.1323 8 48 9.86261 48 12.1606V26.2181Z" fill="#F05124"/>
</svg>
