<svg width="48" height="48" viewBox="0 0 48 48" fill="none" xmlns="http://www.w3.org/2000/svg">
<path d="M24 28.3125C21.7443 28.3125 19.9091 30.205 19.9091 32.5312C19.9091 34.8575 21.7443 36.75 24 36.75C26.2557 36.75 28.0909 34.8575 28.0909 32.5312C28.0909 30.205 26.2557 28.3125 24 28.3125ZM24 33.9375C23.2481 33.9375 22.6364 33.3067 22.6364 32.5312C22.6364 31.7558 23.2481 31.125 24 31.125C24.7519 31.125 25.3636 31.7558 25.3636 32.5312C25.3636 33.3067 24.7519 33.9375 24 33.9375Z" fill="#F05124"/>
<path d="M39 0H9V42.375H14.4545V48H17.1818V42.375H19.9091V48H28.0909V42.375H30.8182V48H33.5455V42.375H39V0ZM36.2727 2.8125V22.6875H11.7273V2.8125H36.2727ZM25.3636 45.1875H22.6364V42.375H25.3636V45.1875ZM11.7273 39.5625V25.5H36.2727V39.5625H11.7273Z" fill="#F05124"/>
</svg>
