<svg width="31" height="31" viewBox="0 0 31 31" fill="none" xmlns="http://www.w3.org/2000/svg">
<rect width="31" height="31" rx="15.5" fill="#FFCABD"/>
<g clip-path="url(#clip0_2009_13591)">
<path d="M9.47786 17.9791H16.5612C16.7491 17.9791 16.9292 17.9045 17.0621 17.7717C17.1949 17.6388 17.2695 17.4587 17.2695 17.2708V12.6666C17.2695 12.4788 17.1949 12.2986 17.0621 12.1658C16.9292 12.0329 16.7491 11.9583 16.5612 11.9583H14.6133C14.5663 11.9583 14.5213 11.977 14.4881 12.0102C14.4549 12.0434 14.4362 12.0884 14.4362 12.1354V14.0833C14.4362 14.1491 14.4179 14.2136 14.3833 14.2695C14.3487 14.3255 14.2992 14.3707 14.2404 14.4001C14.1816 14.4295 14.1157 14.442 14.0502 14.436C13.9847 14.4301 13.9221 14.4061 13.8695 14.3666L13.232 13.8921C13.1717 13.8438 13.0968 13.8175 13.0195 13.8175C12.9423 13.8175 12.8673 13.8438 12.807 13.8921L12.1695 14.3666C12.1169 14.4061 12.0543 14.4301 11.9888 14.436C11.9233 14.442 11.8575 14.4295 11.7986 14.4001C11.7398 14.3707 11.6903 14.3255 11.6558 14.2695C11.6212 14.2136 11.6029 14.1491 11.6029 14.0833V12.1354C11.6029 12.0884 11.5842 12.0434 11.551 12.0102C11.5178 11.977 11.4727 11.9583 11.4258 11.9583H9.47786C9.29 11.9583 9.10984 12.0329 8.977 12.1658C8.84416 12.2986 8.76953 12.4788 8.76953 12.6666V17.2708C8.76953 17.4587 8.84416 17.6388 8.977 17.7717C9.10984 17.9045 9.29 17.9791 9.47786 17.9791ZM8.76953 22.5833C8.76953 22.959 8.91879 23.3194 9.18446 23.585C9.45014 23.8507 9.81047 24 10.1862 24C10.5619 24 10.9223 23.8507 11.1879 23.585C11.4536 23.3194 11.6029 22.959 11.6029 22.5833C11.6029 22.2076 11.4536 21.8473 11.1879 21.5816C10.9223 21.3159 10.5619 21.1666 10.1862 21.1666C9.81047 21.1666 9.45014 21.3159 9.18446 21.5816C8.91879 21.8473 8.76953 22.2076 8.76953 22.5833ZM15.4987 22.5833C15.4987 22.959 15.648 23.3194 15.9136 23.585C16.1793 23.8507 16.5396 24 16.9154 24C17.2911 24 17.6514 23.8507 17.9171 23.585C18.1828 23.3194 18.332 22.959 18.332 22.5833C18.332 22.2076 18.1828 21.8473 17.9171 21.5816C17.6514 21.3159 17.2911 21.1666 16.9154 21.1666C16.5396 21.1666 16.1793 21.3159 15.9136 21.5816C15.648 21.8473 15.4987 22.2076 15.4987 22.5833Z" fill="#F05124"/>
<path d="M24 7.70833C24 7.52047 23.9254 7.3403 23.7925 7.20747C23.6597 7.07463 23.4795 7 23.2917 7H22.3212C21.8314 6.9999 21.3565 7.16906 20.977 7.47884C20.5975 7.78863 20.3367 8.22002 20.2388 8.7L18.2271 18.475C18.194 18.6374 18.1049 18.7831 17.9755 18.8866C17.8461 18.9901 17.6845 19.045 17.5188 19.0417H7.70833C7.52047 19.0417 7.3403 19.1163 7.20747 19.2491C7.07463 19.382 7 19.5621 7 19.75C7 19.9379 7.07463 20.118 7.20747 20.2509C7.3403 20.3837 7.52047 20.4583 7.70833 20.4583H17.5329C18.0228 20.4584 18.4977 20.2893 18.8772 19.9795C19.2566 19.6697 19.5174 19.2383 19.6154 18.7583L21.6271 8.98333C21.6602 8.82093 21.7492 8.67528 21.8786 8.57174C22.0081 8.4682 22.1697 8.41332 22.3354 8.41667H23.2917C23.4795 8.41667 23.6597 8.34204 23.7925 8.2092C23.9254 8.07636 24 7.8962 24 7.70833ZM11.25 7H14.7917C14.7917 7 15.5 7 15.5 7.70833V10.5417C15.5 10.5417 15.5 11.25 14.7917 11.25H11.25C11.25 11.25 10.5417 11.25 10.5417 10.5417V7.70833C10.5417 7.70833 10.5417 7 11.25 7Z" fill="#F05124"/>
</g>
<defs>
<clipPath id="clip0_2009_13591">
<rect width="17" height="17" fill="white" transform="translate(7 7)"/>
</clipPath>
</defs>
</svg>
