<svg width="24" height="24" viewBox="0 0 24 24" fill="none" xmlns="http://www.w3.org/2000/svg">
<rect width="24" height="24" rx="12" fill="#FFCABD"/>
<path d="M16.4872 9.0794L13.859 6.4955C13.5384 6.1879 13.0898 6.00333 12.5769 6.00333H8.79488C7.83333 5.94181 7 6.74159 7 7.66441V16.2774C7 17.2002 7.76923 18 8.79488 18H15.2051C16.1667 18 17 17.2618 17 16.2774V10.2483C17 9.81766 16.8077 9.38701 16.4872 9.0794ZM10.0769 10.8635H12C12.2564 10.8635 12.5128 11.0481 12.5128 11.3557C12.5128 11.6633 12.3205 11.8478 12 11.8478H10.0769C9.82051 11.8478 9.5641 11.6633 9.5641 11.3557C9.5641 11.0481 9.82051 10.8635 10.0769 10.8635ZM13.9231 14.3087H10.0769C9.82051 14.3087 9.5641 14.1242 9.5641 13.8166C9.5641 13.5089 9.75641 13.3244 10.0769 13.3244H13.9231C14.1795 13.3244 14.4359 13.5089 14.4359 13.8166C14.4359 14.1242 14.1795 14.3087 13.9231 14.3087Z" fill="#F05124"/>
</svg>
