<svg width="31" height="31" viewBox="0 0 31 31" fill="none" xmlns="http://www.w3.org/2000/svg">
<rect width="31" height="31" rx="15.5" fill="#FFCABD"/>
<path d="M8.11111 9.125C6.9467 9.125 6 10.0779 6 11.25V19.75C6 20.9221 6.9467 21.875 8.11111 21.875H22.8889C24.0533 21.875 25 20.9221 25 19.75V11.25C25 10.0779 24.0533 9.125 22.8889 9.125H8.11111ZM9.69444 14.4375H14.9722C15.2625 14.4375 15.5 14.6766 15.5 14.9688C15.5 15.2609 15.2625 15.5 14.9722 15.5H9.69444C9.40417 15.5 9.16667 15.2609 9.16667 14.9688C9.16667 14.6766 9.40417 14.4375 9.69444 14.4375ZM9.16667 18.1562C9.16667 17.8641 9.40417 17.625 9.69444 17.625H21.3056C21.5958 17.625 21.8333 17.8641 21.8333 18.1562C21.8333 18.4484 21.5958 18.6875 21.3056 18.6875H9.69444C9.40417 18.6875 9.16667 18.4484 9.16667 18.1562ZM18.4028 12.3125H21.0417C21.4804 12.3125 21.8333 12.6678 21.8333 13.1094V14.7031C21.8333 15.1447 21.4804 15.5 21.0417 15.5H18.4028C17.9641 15.5 17.6111 15.1447 17.6111 14.7031V13.1094C17.6111 12.6678 17.9641 12.3125 18.4028 12.3125Z" fill="#F05124"/>
</svg>
