<svg width="48" height="48" viewBox="0 0 48 48" fill="none" xmlns="http://www.w3.org/2000/svg">
<path d="M27.3263 6C27.6887 6 28.0368 6.14453 28.2931 6.40082C28.5492 6.65704 28.6929 7.00435 28.6929 7.36664V10.1076L28.8909 10.1781C29.3772 10.3511 29.8513 10.5469 30.3136 10.7683L30.5029 10.859L32.4432 8.92064L32.5436 8.82985C32.7867 8.63082 33.0921 8.52088 33.409 8.52079C33.7714 8.52079 34.1195 8.66444 34.3758 8.92064L39.0794 13.6242C39.3356 13.8805 39.4792 14.2286 39.4792 14.591C39.4791 14.9079 39.3692 15.2133 39.1701 15.4564L39.0794 15.5568L37.141 17.4971L37.2317 17.6864C37.4531 18.1487 37.6489 18.6228 37.8219 19.1091L37.8924 19.3071H40.6334C40.9956 19.3071 41.343 19.4508 41.5992 19.7069C41.8555 19.9632 42 20.3113 42 20.6737V27.3263C42 27.6887 41.8555 28.0368 41.5992 28.2931C41.343 28.5492 40.9956 28.6929 40.6334 28.6929H37.8924L37.8219 28.8909C37.6503 29.3753 37.4533 29.8508 37.2317 30.3145L37.141 30.5029L39.0794 32.4432L39.1701 32.5436C39.3692 32.7867 39.4791 33.0921 39.4792 33.409C39.4792 33.7714 39.3356 34.1195 39.0794 34.3758L34.3758 39.0794C34.1195 39.3356 33.7714 39.4792 33.409 39.4792C33.0921 39.4791 32.7867 39.3692 32.5436 39.1701L32.4432 39.0794L30.5029 37.141L30.3145 37.2317C29.8508 37.4533 29.3753 37.6503 28.8909 37.8219L28.6929 37.8924V40.6334C28.6929 40.9956 28.5492 41.343 28.2931 41.5992C28.0368 41.8555 27.6887 42 27.3263 42H20.6737C20.3113 42 19.9632 41.8555 19.7069 41.5992C19.4508 41.343 19.3071 40.9956 19.3071 40.6334V37.8924L19.1091 37.8219C18.6247 37.6503 18.1492 37.4533 17.6855 37.2317L17.4962 37.141L17.3484 37.2897L15.5568 39.0794C15.3006 39.3355 14.9532 39.4791 14.591 39.4792C14.2286 39.4792 13.8805 39.3356 13.6242 39.0794L8.92064 34.3758C8.66444 34.1195 8.52079 33.7714 8.52079 33.409C8.52089 33.0468 8.66453 32.6994 8.92064 32.4432L10.859 30.5029L10.7683 30.3145C10.5467 29.8508 10.3497 29.3753 10.1781 28.8909L10.1076 28.6929H7.36664C7.00435 28.6929 6.65704 28.5492 6.40082 28.2931C6.14452 28.0368 6 27.6887 6 27.3263V20.6737C6 20.3113 6.14452 19.9632 6.40082 19.7069C6.65704 19.4508 7.00435 19.3071 7.36664 19.3071H10.1076L10.1781 19.1091C10.3497 18.6247 10.5467 18.1492 10.7683 17.6855L10.859 17.4962L10.7103 17.3484L8.92064 15.5568C8.66453 15.3006 8.52089 14.9532 8.52079 14.591C8.52079 14.2286 8.66444 13.8805 8.92064 13.6242L13.6242 8.92064C13.8805 8.66444 14.2286 8.52079 14.591 8.52079C14.9532 8.52089 15.3006 8.66453 15.5568 8.92064L17.3484 10.7103L17.4962 10.859L17.6855 10.7683C18.1492 10.5467 18.6247 10.3497 19.1091 10.1781L19.3071 10.1076V7.36664C19.3071 7.00435 19.4508 6.65704 19.7069 6.40082C19.9632 6.14452 20.3113 6 20.6737 6H27.3263ZM22.0403 8.73327V11.1295C22.0398 11.4319 21.9389 11.7259 21.7535 11.9649C21.568 12.2041 21.3077 12.375 21.0146 12.4507C20.0717 12.6946 19.1628 13.0534 18.3084 13.5189L17.9462 13.7246C17.6848 13.8782 17.3797 13.9407 17.0789 13.9023C16.8157 13.8688 16.5685 13.7598 16.3671 13.5894L16.2841 13.5122L14.591 11.8191L14.3804 12.0287L12.0287 14.3804L11.8191 14.591L13.5122 16.2841C13.9261 16.698 14.0276 17.3257 13.7787 17.8439L13.7246 17.9462C13.1581 18.9042 12.7294 19.9372 12.4507 21.0146C12.375 21.3077 12.2041 21.568 11.9649 21.7535C11.7257 21.939 11.4312 22.04 11.1285 22.0403H8.73327V25.9597H11.1285C11.4312 25.96 11.7257 26.061 11.9649 26.2465C12.2041 26.432 12.375 26.6923 12.4507 26.9854L12.5628 27.3891C12.8408 28.3238 13.2305 29.2192 13.7246 30.0538C14.0402 30.5893 13.9537 31.2744 13.5122 31.7159L11.8191 33.409L12.0287 33.6196L14.3804 35.9713L14.591 36.1809L16.2841 34.4878L16.2831 34.4869C16.4981 34.2732 16.7783 34.137 17.0789 34.0986C17.3798 34.0603 17.6854 34.1232 17.9472 34.2763C18.9024 34.8408 19.934 35.268 21.0146 35.5493L21.1228 35.5821C21.3716 35.6687 21.5911 35.8257 21.7535 36.0351C21.9159 36.2445 22.0135 36.496 22.0355 36.7585L22.0403 36.8715V39.2667H25.9597V36.8715C25.96 36.5688 26.061 36.2743 26.2465 36.0351C26.432 35.7959 26.6923 35.625 26.9854 35.5493C28.0623 35.2708 29.0943 34.8415 30.0518 34.2754L30.0528 34.2763C30.591 33.9614 31.2749 34.0468 31.7159 34.4878L33.409 36.1809L33.6196 35.9713L35.9713 33.6196L36.1809 33.409L34.4878 31.7159C34.2735 31.5014 34.136 31.2219 34.0977 30.9211C34.0593 30.6203 34.1218 30.3152 34.2754 30.0538L34.4811 29.6925C34.9452 28.8401 35.3031 27.9313 35.5493 26.9854L35.5821 26.8772C35.6687 26.6284 35.8257 26.4089 36.0351 26.2465C36.2445 26.0841 36.496 25.9865 36.7585 25.9645L36.8715 25.9597H39.2667V22.0403H36.8715C36.5688 22.04 36.2743 21.939 36.0351 21.7535C35.7959 21.568 35.625 21.3077 35.5493 21.0146C35.3054 20.0717 34.9466 19.1628 34.4811 18.3084L34.2754 17.9462C34.1218 17.6848 34.0593 17.3797 34.0977 17.0789C34.136 16.7781 34.2735 16.4986 34.4878 16.2841L36.1809 14.591L35.9713 14.3804L33.6196 12.0287L33.409 11.8191L31.7159 13.5122C31.5016 13.7267 31.2219 13.864 30.9211 13.9023C30.6577 13.9359 30.3909 13.8925 30.1532 13.7778L30.0538 13.7246C29.0958 13.1581 28.0628 12.7294 26.9854 12.4507C26.6923 12.375 26.432 12.2041 26.2465 11.9649C26.061 11.7257 25.96 11.4312 25.9597 11.1285V8.73327H22.0403ZM31.7159 13.9004C31.696 13.9147 31.6746 13.9267 31.6541 13.94C31.6794 13.9236 31.7051 13.9076 31.7295 13.8898L31.7159 13.9004Z" fill="#F05124"/>
<path d="M24 31.2077C20.6371 31.2077 17.9012 28.5255 17.9012 25.2285C17.9012 22.3023 22.2008 17.1041 23.0632 16.0924C23.528 15.5471 24.4721 15.5471 24.9368 16.0924C25.7992 17.1029 30.0988 22.3011 30.0988 25.2285C30.0988 28.5255 27.3629 31.2077 24 31.2077ZM24 18.7746C22.2557 21.0085 20.3407 23.9454 20.3407 25.2285C20.3407 27.2065 21.9825 28.816 24 28.816C26.0175 28.816 27.6593 27.2065 27.6593 25.2285C27.6593 23.943 25.7443 21.0073 24 18.7746Z" fill="#F05124"/>
</svg>
