<svg width="64" height="64" viewBox="0 0 64 64" fill="none" xmlns="http://www.w3.org/2000/svg">
<rect x="1" y="1" width="62" height="62" rx="31" fill="white"/>
<rect x="1" y="1" width="62" height="62" rx="31" stroke="#FFEAE5" stroke-width="2"/>
<path fill-rule="evenodd" clip-rule="evenodd" d="M27.5149 20H23.7775C21.6912 20 20 21.6912 20 23.7775V27.5149C20 28.3623 20.6877 29.0501 21.5352 29.0501C22.3822 29.0501 23.0699 28.3623 23.0699 27.5149V23.7775C23.0699 23.3869 23.3869 23.0699 23.7775 23.0699H27.5149C28.3623 23.0699 29.0501 22.3822 29.0501 21.5352C29.0501 20.6877 28.3623 20 27.5149 20Z" fill="#F05124"/>
<path fill-rule="evenodd" clip-rule="evenodd" d="M44 27.5149V23.7775C44 21.6912 42.3088 20 40.2225 20H36.4851C35.6377 20 34.9499 20.6877 34.9499 21.5352C34.9499 22.3822 35.6377 23.0699 36.4851 23.0699H40.2225C40.6131 23.0699 40.9301 23.3869 40.9301 23.7775V27.5149C40.9301 28.3623 41.6178 29.0501 42.4648 29.0501C43.3123 29.0501 44 28.3623 44 27.5149Z" fill="#F05124"/>
<path fill-rule="evenodd" clip-rule="evenodd" d="M36.4851 44H40.2225C42.3088 44 44 42.3088 44 40.2225V36.4851C44 35.6377 43.3123 34.9499 42.4648 34.9499C41.6178 34.9499 40.9301 35.6377 40.9301 36.4851V40.2225C40.9301 40.6131 40.6131 40.9301 40.2225 40.9301H36.4851C35.6377 40.9301 34.9499 41.6178 34.9499 42.4648C34.9499 43.3123 35.6377 44 36.4851 44Z" fill="#F05124"/>
<path fill-rule="evenodd" clip-rule="evenodd" d="M20 36.4851V40.2225C20 42.3088 21.6912 44 23.7775 44H27.5149C28.3623 44 29.0501 43.3123 29.0501 42.4648C29.0501 41.6178 28.3623 40.9301 27.5149 40.9301H23.7775C23.3869 40.9301 23.0699 40.6131 23.0699 40.2225V36.4851C23.0699 35.6377 22.3822 34.9499 21.5352 34.9499C20.6877 34.9499 20 35.6377 20 36.4851Z" fill="#F05124"/>
<path fill-rule="evenodd" clip-rule="evenodd" d="M30.3448 30.3448H27.4483C26.5346 30.3448 25.7931 31.0863 25.7931 32C25.7931 32.9137 26.5346 33.6552 27.4483 33.6552H30.3448V36.5517C30.3448 37.4654 31.0863 38.2069 32 38.2069C32.9137 38.2069 33.6552 37.4654 33.6552 36.5517V33.6552H36.5517C37.4654 33.6552 38.2069 32.9137 38.2069 32C38.2069 31.0863 37.4654 30.3448 36.5517 30.3448H33.6552V27.4483C33.6552 26.5346 32.9137 25.7931 32 25.7931C31.0863 25.7931 30.3448 26.5346 30.3448 27.4483V30.3448Z" fill="#F05124"/>
</svg>
