<svg width="48" height="38" viewBox="0 0 48 38" fill="none" xmlns="http://www.w3.org/2000/svg">
<path d="M8.69976 37.9168V35.3948C8.69976 34.4302 8.1233 33.7985 7.13371 33.7985C6.63891 33.7985 6.10088 33.9649 5.73098 34.5134C5.44275 34.0531 5.02962 33.7985 4.40993 33.7985C3.9968 33.7985 3.58367 33.9258 3.25701 34.3861V33.8817H2.39231V37.9168H3.25701V35.6887C3.25701 34.9737 3.6269 34.6358 4.20336 34.6358C4.77982 34.6358 5.06805 35.0129 5.06805 35.6887V37.9168H5.93275V35.6887C5.93275 34.9737 6.34588 34.6358 6.8791 34.6358C7.45556 34.6358 7.74379 35.0129 7.74379 35.6887V37.9168H8.69976ZM21.526 33.8817H20.1233V32.6624H19.2586V33.8817H18.4756V34.6799H19.2586V36.5309C19.2586 37.4564 19.6285 38 20.6181 38C20.988 38 21.4011 37.8727 21.6894 37.7062L21.4396 36.9472C21.1898 37.1137 20.9015 37.1577 20.695 37.1577C20.2818 37.1577 20.1185 36.9031 20.1185 36.4869V34.6799H21.5212V33.8817H21.526ZM28.8663 33.7936C28.3715 33.7936 28.04 34.0482 27.8335 34.3812V33.8768H26.9688V37.9119H27.8335V35.6397C27.8335 34.9688 28.1217 34.5869 28.6597 34.5869C28.8231 34.5869 29.0296 34.6309 29.1978 34.6701L29.4476 33.8278C29.2746 33.7936 29.0296 33.7936 28.8663 33.7936ZM17.7742 34.2147C17.3611 33.9209 16.7846 33.7936 16.1649 33.7936C15.1753 33.7936 14.5172 34.2979 14.5172 35.0961C14.5172 35.767 15.012 36.149 15.8767 36.2714L16.2898 36.3155C16.7414 36.3987 16.9912 36.526 16.9912 36.7366C16.9912 37.0304 16.6597 37.241 16.0833 37.241C15.5068 37.241 15.0504 37.0304 14.7622 36.8198L14.3491 37.4907C14.8006 37.8286 15.4203 37.9951 16.04 37.9951C17.193 37.9951 17.8559 37.4466 17.8559 36.6925C17.8559 35.9776 17.3179 35.6005 16.4964 35.4732L16.0833 35.4291C15.7134 35.3851 15.4251 35.3018 15.4251 35.0521C15.4251 34.7582 15.7134 34.5918 16.1697 34.5918C16.6645 34.5918 17.1593 34.8023 17.4091 34.9296L17.7742 34.2147ZM40.7798 33.7936C40.285 33.7936 39.9536 34.0482 39.747 34.3812V33.8768H38.8823V37.9119H39.747V35.6397C39.747 34.9688 40.0352 34.5869 40.5733 34.5869C40.7366 34.5869 40.9432 34.6309 41.1113 34.6701L41.3611 33.8376C41.193 33.7936 40.948 33.7936 40.7798 33.7936ZM29.731 35.8992C29.731 37.1186 30.5572 38 31.8351 38C32.4115 38 32.8247 37.8727 33.2378 37.5397L32.8247 36.8247C32.4932 37.0794 32.1665 37.2018 31.7918 37.2018C31.0905 37.2018 30.5957 36.6974 30.5957 35.8992C30.5957 35.1402 31.0905 34.6358 31.7918 34.5966C32.1617 34.5966 32.4932 34.724 32.8247 34.9737L33.2378 34.2588C32.8247 33.9209 32.4115 33.7985 31.8351 33.7985C30.5572 33.7936 29.731 34.6799 29.731 35.8992ZM37.7294 33.8817H36.8647V34.3861C36.5765 34.009 36.1633 33.7985 35.6253 33.7985C34.5108 33.7985 33.6461 34.6799 33.6461 35.8992C33.6461 37.1186 34.5108 38 35.6253 38C36.2018 38 36.6149 37.7894 36.8647 37.4124V37.9168H37.7294V33.8817ZM34.554 35.8992C34.554 35.1843 35.0056 34.5966 35.7502 34.5966C36.4516 34.5966 36.9464 35.1451 36.9464 35.8992C36.9464 36.6142 36.4516 37.2018 35.7502 37.2018C35.0104 37.1577 34.554 36.6093 34.554 35.8992ZM24.2066 33.7936C23.0536 33.7936 22.2274 34.6358 22.2274 35.8943C22.2274 37.1577 23.0536 37.9951 24.2498 37.9951C24.8263 37.9951 25.4027 37.8286 25.8591 37.4466L25.446 36.8149C25.1145 37.0696 24.7014 37.2361 24.293 37.2361C23.755 37.2361 23.2218 36.9814 23.0969 36.2714H26.0224C26.0224 36.1441 26.0224 36.0608 26.0224 35.9335C26.0608 34.6358 25.3163 33.7936 24.2066 33.7936ZM24.2066 34.5526C24.7446 34.5526 25.1145 34.8905 25.1962 35.5173H23.1353C23.217 34.9737 23.5869 34.5526 24.2066 34.5526ZM45.6894 32.2853H44.8247V34.3861C44.5364 34.009 44.1233 33.7985 43.5853 33.7985C42.4708 33.7985 41.6061 34.6799 41.6061 35.8992C41.6061 37.1186 42.4708 38 43.5853 38C44.1617 38 44.5749 37.7894 44.8247 37.4124V37.9168H45.6894V32.2853ZM42.514 35.8992C42.514 35.1843 42.9656 34.5966 43.7102 34.5966C44.4115 34.5966 44.9063 35.1451 44.9063 35.8992C44.9063 36.6142 44.4115 37.2018 43.7102 37.2018C42.9656 37.1577 42.514 36.6093 42.514 35.8992ZM13.5661 33.8817H12.7014V34.3861C12.4131 34.009 12 33.7985 11.462 33.7985C10.3475 33.7985 9.48279 34.6799 9.48279 35.8992C9.48279 37.1186 10.3475 38 11.462 38C12.0384 38 12.4516 37.7894 12.7014 37.4124V37.9168H13.5661V33.8817ZM10.3523 35.8992C10.3523 35.1843 10.8038 34.5966 11.5484 34.5966C12.2498 34.5966 12.7446 35.1451 12.7446 35.8992C12.7446 36.6142 12.2498 37.2018 11.5484 37.2018C10.8038 37.1577 10.3523 36.6093 10.3523 35.8992Z" fill="black"/>
<path d="M30.4756 3.23686H17.486V27.026H30.4756V3.23686Z" fill="#FF5A00"/>
<path d="M18.3507 15.1314C18.3507 10.2982 20.5797 6.0085 24 3.23686C21.4828 1.21933 18.3074 0 14.8439 0C6.63891 0 0 6.76753 0 15.1314C0 23.4954 6.63891 30.2629 14.8439 30.2629C18.3074 30.2629 21.4828 29.0436 24 27.026C20.5749 24.2936 18.3507 19.9647 18.3507 15.1314Z" fill="#EB001B"/>
<path d="M48 15.1314C48 23.4954 41.3611 30.2629 33.1561 30.2629C29.6926 30.2629 26.5172 29.0436 24 27.026C27.4636 24.2495 29.6493 19.9647 29.6493 15.1314C29.6493 10.2982 27.4203 6.0085 24 3.23686C26.5124 1.21933 29.6877 0 33.1513 0C41.3611 0 48 6.8116 48 15.1314Z" fill="#F79E1B"/>
</svg>
