<svg width="31" height="31" viewBox="0 0 31 31" fill="none" xmlns="http://www.w3.org/2000/svg">
<rect width="31" height="31" rx="15.5" fill="#FFCABD"/>
<path fill-rule="evenodd" clip-rule="evenodd" d="M9.21739 11.32V12.2H8.33043C7.97758 12.2 7.63918 12.3391 7.38968 12.5866C7.14017 12.8342 7 13.1699 7 13.52V19.68C7 20.0301 7.14017 20.3658 7.38968 20.6134C7.63918 20.8609 7.97758 21 8.33043 21H20.4522C20.6269 21 20.7999 20.9659 20.9613 20.8995C21.1227 20.8332 21.2694 20.736 21.3929 20.6134C21.5165 20.4908 21.6145 20.3453 21.6813 20.1851C21.7482 20.025 21.7826 19.8533 21.7826 19.68V18.8H22.6696C23.4028 18.8 24 18.2075 24 17.48V11.32C24 10.5925 23.4028 10 22.6696 10H10.5478C9.81461 10 9.21739 10.5925 9.21739 11.32ZM10.6957 11.4667V12.2H20.4522C20.6269 12.2 20.7999 12.2341 20.9613 12.3005C21.1227 12.3668 21.2694 12.464 21.3929 12.5866C21.5165 12.7092 21.6145 12.8547 21.6813 13.0149C21.7482 13.175 21.7826 13.3467 21.7826 13.52V17.3333H22.5217V11.4667H10.6957ZM12.913 16.6C12.913 16.211 13.0688 15.838 13.346 15.5629C13.6232 15.2879 13.9992 15.1333 14.3913 15.1333C14.7834 15.1333 15.1594 15.2879 15.4366 15.5629C15.7138 15.838 15.8696 16.211 15.8696 16.6C15.8696 16.989 15.7138 17.362 15.4366 17.6371C15.1594 17.9121 14.7834 18.0667 14.3913 18.0667C13.9992 18.0667 13.6232 17.9121 13.346 17.6371C13.0688 17.362 12.913 16.989 12.913 16.6Z" fill="#F05124"/>
</svg>
