<svg width="96" height="96" viewBox="0 0 96 96" fill="none" xmlns="http://www.w3.org/2000/svg">
<rect width="96" height="96" rx="16" fill="#FFF4F0"/>
<path d="M33.5617 26.4321C34.3854 25.7055 35.4426 25.2989 36.5409 25.2862H41.1242C42.3398 25.2862 43.5056 25.7691 44.3651 26.6287C45.2247 27.4882 45.7076 28.654 45.7076 29.8696V32.1612H64.0409C65.2565 32.1612 66.4222 32.6441 67.2818 33.5037C68.1413 34.3632 68.6242 35.529 68.6242 36.7446V45.9112C69.232 45.9112 69.8149 46.1527 70.2447 46.5825C70.6744 47.0122 70.9159 47.5951 70.9159 48.2029C70.9159 48.8107 70.6744 49.3936 70.2447 49.8234C69.8149 50.2531 69.232 50.4946 68.6242 50.4946H59.4576C58.8498 50.4946 58.2669 50.2531 57.8371 49.8234C57.4073 49.3936 57.1659 48.8107 57.1659 48.2029C57.1659 47.5951 57.4073 47.0122 57.8371 46.5825C58.2669 46.1527 58.8498 45.9112 59.4576 45.9112V41.3279H48.4576M68.2576 72.7925L71.168 69.8821L45.7076 44.3987L25.9763 24.6675L23.043 27.5779L28.8638 33.3987C28.195 34.0248 27.7292 34.8369 27.5264 35.7303C27.3237 36.6237 27.3933 37.5573 27.7263 38.4107C28.0592 39.2641 28.6403 39.9982 29.3946 40.5182C30.1488 41.0382 31.0415 41.3202 31.9576 41.3279V61.9529H29.6659C28.4503 61.9529 27.2845 62.4358 26.425 63.2953C25.5654 64.1549 25.0826 65.3207 25.0826 66.5362V71.1196H52.5826V66.5362C52.5826 65.3207 52.0997 64.1549 51.2401 63.2953C50.3806 62.4358 49.2148 61.9529 47.9992 61.9529H45.7076V50.2425L68.2576 72.7925Z" fill="#F05124"/>
</svg>
