<svg width="48" height="48" viewBox="0 0 48 48" fill="none" xmlns="http://www.w3.org/2000/svg">
<path d="M29.7951 30.4231V8.73452C29.7951 5.57239 27.1575 2.99976 23.9154 2.99976C20.6732 2.99976 18.0356 5.57239 18.0356 8.73452V30.4231C16.2818 32.0131 15.287 34.2247 15.2861 36.5801C15.2854 38.7593 16.143 40.8303 17.701 42.4116C19.2601 43.9939 21.3481 44.9108 23.5805 44.9935C23.6939 44.9977 23.8069 44.9998 23.9197 44.9998C26.164 44.9998 28.2763 44.1712 29.8997 42.6469C31.6053 41.0454 32.5446 38.8919 32.5446 36.5832C32.5446 34.2265 31.55 32.0139 29.7951 30.4231ZM28.1395 40.8636C26.9361 41.9936 25.3515 42.5817 23.6769 42.5198C20.4485 42.4002 17.823 39.7361 17.8242 36.581C17.8249 34.7741 18.6545 33.0869 20.1003 31.9521L20.5737 31.5805V8.73452C20.5737 6.93735 22.0728 5.47519 23.9154 5.47519C25.758 5.47519 27.2571 6.93735 27.2571 8.73452V31.5806L27.7305 31.9521C29.177 33.0875 30.0066 34.7755 30.0066 36.5832C30.0066 38.2128 29.3435 39.733 28.1395 40.8636Z" fill="#F05124"/>
<path d="M25.269 33.2139V8.85829C25.269 8.17474 24.7008 7.62057 24 7.62057C23.2991 7.62057 22.731 8.17474 22.731 8.85829V33.2139C21.3251 33.7192 20.3198 35.0388 20.3198 36.5832C20.3198 38.5624 21.9707 40.1726 24 40.1726C26.0292 40.1726 27.6801 38.5624 27.6801 36.5832C27.6801 35.0388 26.6749 33.7192 25.269 33.2139ZM24 37.6971C23.3702 37.6971 22.8579 37.1974 22.8579 36.5832C22.8579 35.9689 23.3702 35.4692 24 35.4692C24.6297 35.4692 25.1421 35.9689 25.1421 36.5832C25.1421 37.1974 24.6297 37.6971 24 37.6971Z" fill="#F05124"/>
<path d="M37.3315 15.3806C37.3315 13.9184 36.6807 13.129 36.2055 12.5526C35.8287 12.0954 35.6395 11.866 35.6395 11.2756V10.0379H33.1015V11.2756C33.1015 12.7378 33.7524 13.5272 34.2276 14.1037C34.6044 14.5608 34.7935 14.7902 34.7935 15.3806C34.7935 15.9709 34.6044 16.2003 34.2276 16.6574C33.7524 17.2339 33.1015 18.0233 33.1015 19.4853C33.1015 20.9475 33.7524 21.7371 34.2276 22.3135C34.6045 22.7707 34.7935 23.0001 34.7935 23.5907C34.7935 24.1812 34.6044 24.4106 34.2276 24.8679C33.7524 25.4444 33.1015 26.2339 33.1015 27.696V28.9338H35.6395V27.696C35.6395 27.1056 35.8287 26.8761 36.2055 26.4189C36.6807 25.8423 37.3315 25.0528 37.3315 23.5907C37.3315 22.1285 36.6807 21.339 36.2055 20.7625C35.8286 20.3053 35.6395 20.0759 35.6395 19.4853C35.6395 18.895 35.8287 18.6656 36.2054 18.2085C36.6807 17.6321 37.3315 16.8427 37.3315 15.3806Z" fill="#F05124"/>
<path d="M42.308 19.4854C42.308 18.8951 42.4972 18.6657 42.8739 18.2086C43.3492 17.6321 44 16.8427 44 15.3807C44 13.9185 43.3492 13.1291 42.874 12.5526C42.4972 12.0955 42.308 11.8661 42.308 11.2757V10.038H39.77V11.2757C39.77 12.7379 40.4208 13.5273 40.896 14.1037C41.2728 14.5609 41.462 14.7903 41.462 15.3807C41.462 15.971 41.2728 16.2004 40.8961 16.6575C40.4208 17.2339 39.77 18.0233 39.77 19.4854C39.77 20.9476 40.4208 21.7372 40.896 22.3136C41.2729 22.7708 41.462 23.0002 41.462 23.5908C41.462 24.1813 41.2728 24.4107 40.896 24.8679C40.4208 25.4445 39.77 26.234 39.77 27.6961V28.9338H42.308V27.6961C42.308 27.1056 42.4972 26.8762 42.874 26.419C43.3492 25.8424 44 25.0529 44 23.5908C44 22.1286 43.3492 21.339 42.874 20.7626C42.4972 20.3054 42.308 20.0759 42.308 19.4854Z" fill="#F05124"/>
<path d="M12.3605 11.2756C12.3605 11.8659 12.1713 12.0954 11.7945 12.5526C11.3193 13.129 10.6685 13.9185 10.6685 15.3806C10.6685 16.8426 11.3193 17.6321 11.7946 18.2085C12.1714 18.6656 12.3605 18.895 12.3605 19.4853C12.3605 20.0758 12.1713 20.3053 11.7945 20.7625C11.3193 21.339 10.6685 22.1285 10.6685 23.5907C10.6685 25.0528 11.3193 25.8424 11.7945 26.4189C12.1714 26.8761 12.3605 27.1055 12.3605 27.696V28.9338H14.8985V27.696C14.8985 26.2339 14.2476 25.4443 13.7724 24.8679C13.3956 24.4106 13.2065 24.1812 13.2065 23.5907C13.2065 23.0001 13.3956 22.7707 13.7724 22.3135C14.2476 21.737 14.8985 20.9475 14.8985 19.4853C14.8985 18.0233 14.2476 17.2338 13.7724 16.6574C13.3956 16.2003 13.2065 15.9709 13.2065 15.3806C13.2065 14.7902 13.3956 14.5608 13.7724 14.1037C14.2476 13.5272 14.8985 12.7377 14.8985 11.2756V10.0379H12.3605V11.2756Z" fill="#F05124"/>
<path d="M5.69201 11.2756C5.69201 11.8659 5.50284 12.0954 5.12603 12.5526C4.65083 13.129 4 13.9185 4 15.3806C4 16.8426 4.65083 17.6321 5.12612 18.2085C5.50293 18.6656 5.69201 18.895 5.69201 19.4853C5.69201 20.0758 5.50284 20.3053 5.12603 20.7625C4.65083 21.339 4 22.1285 4 23.5907C4 25.0528 4.65083 25.8424 5.12603 26.4189C5.50293 26.8761 5.69201 27.1055 5.69201 27.696V28.9338H8.23002V27.696C8.23002 26.2339 7.57919 25.4443 7.10399 24.8679C6.72709 24.4106 6.53801 24.1812 6.53801 23.5907C6.53801 23.0001 6.72718 22.7707 7.10399 22.3135C7.57919 21.737 8.23002 20.9475 8.23002 19.4853C8.23002 18.0233 7.57919 17.2338 7.1039 16.6574C6.72709 16.2003 6.53801 15.9709 6.53801 15.3806C6.53801 14.7902 6.72718 14.5608 7.10399 14.1037C7.57919 13.5272 8.23002 12.7377 8.23002 11.2756V10.0379H5.69201V11.2756Z" fill="#F05124"/>
</svg>
