<svg width="40" height="40" viewBox="0 0 40 40" fill="none" xmlns="http://www.w3.org/2000/svg">
<rect width="40" height="40" rx="20" fill="#F05124"/>
<path d="M21.6488 24.1112C21.8347 24.1966 22.0441 24.2161 22.2425 24.1665C22.441 24.1169 22.6166 24.0012 22.7405 23.8385L23.06 23.42C23.2277 23.1964 23.4451 23.015 23.695 22.89C23.945 22.7651 24.2206 22.7 24.5 22.7H27.2C27.6774 22.7 28.1352 22.8896 28.4728 23.2272C28.8104 23.5648 29 24.0226 29 24.5V27.2C29 27.6774 28.8104 28.1352 28.4728 28.4728C28.1352 28.8104 27.6774 29 27.2 29C22.9035 29 18.783 27.2932 15.7449 24.2551C12.7068 21.217 11 17.0965 11 12.8C11 12.3226 11.1896 11.8648 11.5272 11.5272C11.8648 11.1896 12.3226 11 12.8 11H15.5C15.9774 11 16.4352 11.1896 16.7728 11.5272C17.1104 11.8648 17.3 12.3226 17.3 12.8V15.5C17.3 15.7794 17.2349 16.055 17.11 16.305C16.985 16.5549 16.8036 16.7723 16.58 16.94L16.1588 17.2559C15.9936 17.3821 15.8771 17.5615 15.8292 17.7638C15.7813 17.9661 15.8049 18.1787 15.896 18.3656C17.126 20.8639 19.149 22.8843 21.6488 24.1112Z" stroke="white" stroke-width="2" stroke-linecap="round" stroke-linejoin="round"/>
</svg>
