<svg width="24" height="24" viewBox="0 0 24 24" fill="none" xmlns="http://www.w3.org/2000/svg">
<rect width="24" height="24" rx="12" fill="#F05124"/>
<path d="M16.9802 14.8707C16.9175 14.5728 16.7209 14.3061 16.4385 14.1394C15.9156 13.8331 15.3739 13.5373 14.851 13.2519L14.4933 13.056C14.0374 12.8081 13.7258 12.8539 13.5438 12.9373C13.3702 13.0164 13.1422 13.206 13.0439 13.6623C13.0418 13.6686 13.0397 13.6769 13.0397 13.6852C13.0083 13.804 12.9205 13.8519 12.8703 13.8706C12.7553 13.9102 12.6193 13.8831 12.5064 13.7956C11.6342 13.1123 10.8791 12.3622 10.1973 11.5059C10.1095 11.3976 10.0823 11.2642 10.1241 11.1496C10.1429 11.0976 10.1952 11.0038 10.3416 10.9726C10.3479 10.9705 10.3563 10.9705 10.3625 10.9684C10.8269 10.8663 11.0109 10.6288 11.0862 10.4475C11.1678 10.2433 11.195 9.89332 10.8582 9.38912C10.6052 9.01201 10.3939 8.59949 10.1889 8.19947C10.0948 8.01821 10.0028 7.83695 9.90657 7.65776C9.71415 7.30357 9.45688 7.08273 9.16407 7.01814C8.89843 6.96189 8.61817 7.0369 8.35254 7.23691C8.089 7.43692 7.81082 7.65776 7.5473 7.91195C6.98048 8.46199 6.8508 9.15786 7.1729 9.92248C8.53869 13.1789 10.8917 15.5062 14.1692 16.8417C14.4243 16.9479 14.6753 17 14.9138 17C15.3446 17 15.7399 16.8292 16.0829 16.4916C16.3611 16.2187 16.6058 15.9041 16.815 15.627C16.976 15.4082 17.0346 15.1395 16.9802 14.8707Z" fill="white"/>
</svg>
