<svg width="48" height="48" viewBox="0 0 48 48" fill="none" xmlns="http://www.w3.org/2000/svg">
<path d="M24.2997 5.77903V3.02833H4.00422V5.77903H24.2997Z" fill="#F05124"/>
<path d="M43.2188 46V23.6671H45.9707V46H43.2188Z" fill="#F05124"/>
<path d="M36.4539 26.4093V43.2574C36.4539 44.017 37.0699 44.6328 37.8298 44.6328C38.5897 44.6328 39.2058 44.017 39.2058 43.2574V26.4093C39.2058 25.6497 38.5897 25.034 37.8298 25.034C37.0699 25.034 36.4539 25.6497 36.4539 26.4093Z" fill="#F05124"/>
<path d="M26.3041 3.02832V5.77903H2V3.02832H26.3041Z" fill="#F05124"/>
<path d="M22.5803 12.5412C23.34 12.541 23.9562 11.9253 23.9562 11.1658C23.9562 10.4064 23.34 9.79072 22.5803 9.79049H5.72471C4.96479 9.79049 4.34875 10.4063 4.34875 11.1658C4.34875 11.9254 4.96479 12.5412 5.72471 12.5412H22.5803Z" fill="#F05124"/>
<path d="M21.2038 4.43201V22.9993C21.2038 25.6419 23.3474 27.7847 25.9913 27.7847H44.5658C45.3258 27.7847 45.9418 27.1689 45.9418 26.4093C45.9418 25.6497 45.3258 25.034 44.5658 25.034H25.9913C24.8673 25.034 23.9557 24.1228 23.9557 22.9993V4.43201L23.9489 4.29135C23.8783 3.59797 23.2921 3.05666 22.5797 3.05666C21.8674 3.05666 21.2812 3.59797 21.2106 4.29135L21.2038 4.43201Z" fill="#F05124"/>
<path d="M4.34875 4.37535V26.3517C4.34875 36.4478 12.5372 44.6328 22.6379 44.6328H44.624C45.384 44.6328 46 44.017 46 43.2574C46 42.4978 45.384 41.882 44.624 41.882H22.6379C14.057 41.882 7.10068 34.9286 7.10068 26.3517V4.37535L7.09384 4.23469C7.0235 3.54103 6.43724 3 5.72471 3C5.01219 3 4.42593 3.54103 4.35559 4.23469L4.34875 4.37535Z" fill="#F05124"/>
</svg>
