<svg width="48" height="48" viewBox="0 0 48 48" fill="none" xmlns="http://www.w3.org/2000/svg">
<path d="M45.656 29.6719V25.8611C45.656 19.5552 40.4913 14.4249 34.1431 14.4249H30.469V9.76839H28.2189V4.64605H31.2812V1.85229H16.7187V4.64605H19.781V9.76839H17.5308V14.4249H8.43789V10.3447H0V28.7495H8.43789V24.6692H33.2383C34.3988 24.6692 35.343 25.6071 35.343 26.76V29.672H32.999V32.4658H48V29.672L45.656 29.6719ZM22.5935 4.64605H25.4064V9.76839H22.5935V4.64605ZM5.62539 25.9557H2.81251V13.1385H5.62539V25.9557ZM33.2383 21.8754H8.43789V17.2187H20.3433V12.5621H27.6565V17.2187H34.1431C38.9405 17.2187 42.8435 21.0957 42.8435 25.8611V29.6719H38.1555V26.7599C38.1555 24.0665 35.9496 21.8754 33.2383 21.8754ZM41.3536 35.4296L40.4995 34.7809L39.6455 35.4296C38.1811 36.5121 35.6981 39.141 35.8119 41.1959C35.8118 43.7634 37.9147 45.8523 40.4995 45.8523C43.0843 45.8523 45.1872 43.7634 45.1872 41.1959C45.301 39.1397 42.8138 36.508 41.3536 35.4296ZM40.4995 43.0585C39.4655 43.0585 38.6243 42.2229 38.6243 41.1959C38.5576 40.5682 39.7099 39.0789 40.4995 38.3886C40.7168 38.5934 40.9264 38.8061 41.1278 39.0263C41.9086 39.8832 42.3747 40.6942 42.3747 41.1959C42.3747 42.2229 41.5335 43.0585 40.4995 43.0585Z" fill="#F05124"/>
</svg>
