<svg width="48" height="48" viewBox="0 0 48 48" fill="none" xmlns="http://www.w3.org/2000/svg">
<path fill-rule="evenodd" clip-rule="evenodd" d="M41.2178 18.9428C41.2178 15.9589 38.7903 13.5314 35.8064 13.5314H29.5291V9.63515H25.6329V2L24.2358 2.10606C24.1161 2.11516 21.2735 2.34347 18.406 3.6372C14.378 5.4544 12.2674 8.4532 12.3024 12.3095L12.3034 12.3877C12.3342 14.6403 12.2129 26.043 6.78223 29.3013L8.11872 31.5287C11.368 29.5791 13.0758 25.6496 13.9651 21.772L14.5636 18.3533C14.8859 15.8057 14.9174 13.5774 14.9007 12.3522L14.8998 12.2859C14.8747 9.51635 16.3951 7.41152 19.4187 6.03009C20.7339 5.42921 22.0726 5.08971 23.0355 4.90373V9.63506H19.1393L19.1392 38.2075H12.6455V46H36.0229V38.2075H29.5291V21.3238H33.4254V26.5188H35.5099C35.2551 26.9195 35.0083 27.3251 34.7696 27.7356C33.4094 30.0802 33.2522 31.0795 33.2522 31.6272C33.2522 33.8233 35.0389 35.61 37.235 35.61C39.4311 35.61 41.2178 33.8233 41.2178 31.6272C41.2178 31.0795 41.0606 30.0802 39.7005 27.7356C39.4618 27.3251 39.2149 26.9195 38.9601 26.5188H41.2178V18.9428ZM37.235 33.0126C36.4712 33.0126 35.8497 32.3911 35.8497 31.6278C35.8568 31.2113 36.4359 30.0013 37.235 28.6622C38.0341 30.0012 38.6132 31.211 38.6203 31.6272C38.6203 32.3911 37.9989 33.0126 37.235 33.0126ZM26.9316 12.2326V38.2075H21.7367V12.2326H26.9316ZM33.4254 40.805V43.4025H15.2429V40.805H33.4254ZM33.6635 18.7264H29.5291V16.1289H35.8064C37.3581 16.1289 38.6203 17.3912 38.6203 18.9428V23.9213H36.0229V21.0857C36.0229 19.7847 34.9645 18.7264 33.6635 18.7264Z" fill="#F05124"/>
</svg>
