<svg width="60" height="60" viewBox="0 0 60 60" fill="none" xmlns="http://www.w3.org/2000/svg">
<rect width="60" height="60" rx="10.0792" fill="#FFF4F0"/>
<g clip-path="url(#clip0_2098_19994)">
<path d="M30 15C38.1697 15 44.7921 21.6224 44.7921 29.7921C44.7921 37.9618 38.1697 44.5842 30 44.5842C21.8303 44.5842 15.2079 37.9618 15.2079 29.7921C15.2079 21.6224 21.8303 15 30 15ZM30 35.7089C29.6077 35.7089 29.2314 35.8648 28.954 36.1422C28.6766 36.4196 28.5208 36.7958 28.5208 37.1882C28.5208 37.5805 28.6766 37.9567 28.954 38.2341C29.2314 38.5115 29.6077 38.6674 30 38.6674C30.3923 38.6674 30.7685 38.5115 31.046 38.2341C31.3234 37.9567 31.4792 37.5805 31.4792 37.1882C31.4792 36.7958 31.3234 36.4196 31.046 36.1422C30.7685 35.8648 30.3923 35.7089 30 35.7089ZM30 21.6564C28.5779 21.6564 27.214 22.2214 26.2084 23.227C25.2028 24.2326 24.6379 25.5965 24.6379 27.0186C24.6379 27.4109 24.7937 27.7871 25.0711 28.0645C25.3485 28.342 25.7248 28.4978 26.1171 28.4978C26.5094 28.4978 26.8856 28.342 27.163 28.0645C27.4404 27.7871 27.5963 27.4109 27.5963 27.0186C27.5968 26.5823 27.716 26.1543 27.9412 25.7806C28.1664 25.4069 28.4891 25.1016 28.8746 24.8973C29.2602 24.693 29.694 24.5975 30.1297 24.6211C30.5654 24.6446 30.9864 24.7863 31.3477 25.0309C31.709 25.2756 31.9969 25.6139 32.1805 26.0097C32.3641 26.4055 32.4365 26.8438 32.39 27.2777C32.3435 27.7115 32.1797 28.1245 31.9163 28.4723C31.653 28.8202 31.2999 29.0898 30.8949 29.2522C29.895 29.6516 28.5208 30.6752 28.5208 32.3807V32.7505C28.5208 33.1428 28.6766 33.5191 28.954 33.7965C29.2314 34.0739 29.6077 34.2297 30 34.2297C30.3923 34.2297 30.7685 34.0739 31.046 33.7965C31.3234 33.5191 31.4792 33.1428 31.4792 32.7505C31.4792 32.3896 31.5532 32.2091 31.8653 32.0553L31.994 31.9961C33.149 31.5315 34.1063 30.6796 34.702 29.5864C35.2977 28.4932 35.4945 27.2268 35.2588 26.0044C35.023 24.782 34.3694 23.6797 33.4099 22.8864C32.4505 22.0931 31.2449 21.6583 30 21.6564Z" fill="#F05124"/>
</g>
<defs>
<clipPath id="clip0_2098_19994">
<rect width="30" height="30" fill="white" transform="translate(15 15)"/>
</clipPath>
</defs>
</svg>
