<svg width="48" height="48" viewBox="0 0 48 48" fill="none" xmlns="http://www.w3.org/2000/svg">
<path d="M33.6585 11.0946C33.6583 10.3472 33.0489 9.72993 32.3109 9.72974H15.6891C14.9512 9.72993 14.3417 10.3472 14.3415 11.0946C14.3415 11.8422 14.951 12.4593 15.6891 12.4595H32.3109C33.0489 12.4593 33.6585 11.8421 33.6585 11.0946ZM20.8552 25.8141C20.8551 26.4041 20.4811 26.927 19.9277 27.1109C18.3146 27.6464 17.0183 28.4725 16.1523 29.4278C15.8971 29.7093 15.5368 29.8698 15.1595 29.8698H9.08604V34.8746H15.1595C15.5368 34.8746 15.8971 35.0351 16.1523 35.3166C17.6902 37.0132 20.5623 38.2703 24 38.2703C27.4377 38.2702 30.3099 37.0131 31.8477 35.3166L31.9476 35.2164C32.1927 34.9971 32.5103 34.8746 32.8405 34.8746H38.914V29.8698H32.8405C32.4632 29.8698 32.1029 29.7093 31.8477 29.4278C30.9817 28.4725 29.6854 27.6464 28.0723 27.1109C27.5189 26.927 27.1449 26.4041 27.1448 25.8141V22.7378H20.8552V25.8141ZM41.6099 37.0135H44.305V27.731H41.6099V37.0135ZM3.69503 37.0135H6.39005V27.731H3.69503V37.0135ZM22.6525 20.0081H25.3475V15.1902H22.6525V20.0081ZM36.3535 11.0946C36.3535 13.3499 34.5375 15.19 32.3109 15.1902H28.0425V20.0081H28.4924C29.2366 20.0081 29.8398 20.6192 29.8399 21.373V24.863C31.2089 25.4295 32.4275 26.1989 33.4028 27.1391H38.914V26.3661C38.914 25.6124 39.5173 25.0015 40.2615 25.0013H45.6525C46.3968 25.0013 47 25.6122 47 26.3661V38.3783C46.9999 39.1322 46.3967 39.7432 45.6525 39.7432H40.2615C39.5174 39.743 38.914 39.132 38.914 38.3783V37.6044H33.4038C31.2064 39.7242 27.7551 41 24 41C20.2449 41 16.7937 39.7241 14.5962 37.6044H9.08604V38.3783C9.08599 39.132 8.48263 39.743 7.73853 39.7432H2.34751C1.60325 39.7432 1.00005 39.1322 1 38.3783V26.3661C1 25.6122 1.60322 25.0013 2.34751 25.0013H7.73853C8.48266 25.0015 9.08604 25.6124 9.08604 26.3661V27.1391H14.5972C15.5725 26.1989 16.7911 25.4295 18.1601 24.863V21.373C18.1602 20.6192 18.7635 20.0082 19.5076 20.0081H19.9565V15.1902H15.6891C13.4625 15.19 11.6465 13.35 11.6465 11.0946C11.6467 8.83946 13.4626 7.00019 15.6891 7H32.3109C34.5374 7.00019 36.3533 8.83934 36.3535 11.0946Z" fill="#F05124"/>
</svg>
