<svg width="48" height="48" viewBox="0 0 48 48" fill="none" xmlns="http://www.w3.org/2000/svg">
<path d="M24 6C12.225 6 3 11.265 3 18V30C3 36.735 12.225 42 24 42H34.5C35.5157 41.9994 36.5012 41.6551 37.2965 41.0233C38.0917 40.3915 38.6498 39.5092 38.88 38.52C42.825 36.285 45 33.3 45 30V18C45 11.265 35.775 6 24 6ZM24 9C33.75 9 42 13.125 42 18C42 22.875 33.75 27 24 27C14.25 27 6 22.875 6 18C6 13.125 14.25 9 24 9ZM36 37.5C36 37.8978 35.842 38.2794 35.5607 38.5607C35.2794 38.842 34.8978 39 34.5 39H24C14.25 39 6 34.875 6 30V24.24C9.645 27.72 16.26 30 24 30H34.5C34.8978 30 35.2794 30.158 35.5607 30.4393C35.842 30.7206 36 31.1022 36 31.5V37.5ZM39 34.875V31.5C38.996 30.7052 38.7815 29.9256 38.3784 29.2405C37.9753 28.5555 37.3979 27.9895 36.705 27.6C38.653 26.7985 40.4452 25.6612 42 24.24V30C41.9123 30.9896 41.5956 31.9452 41.0749 32.7913C40.5542 33.6374 39.8439 34.3507 39 34.875Z" fill="#F05124"/>
<path d="M24 24C30 24 34.5 21.42 34.5 18C34.5 14.58 30 12 24 12C18 12 13.5 14.58 13.5 18C13.5 21.42 18 24 24 24ZM24 15C28.575 15 31.5 16.77 31.5 18C31.5 19.23 28.575 21 24 21C19.425 21 16.5 19.23 16.5 18C16.5 16.77 19.5 15 24 15Z" fill="#F05124"/>
</svg>
