<svg width="14" height="14" viewBox="0 0 14 14" fill="none" xmlns="http://www.w3.org/2000/svg">
<path d="M6.5943 0.7052C6.79404 0.432022 7.2012 0.432022 7.40094 0.7052L9.31989 3.32825C9.50502 3.58145 9.76503 3.77045 10.063 3.86829L13.1509 4.88196C13.4723 4.98757 13.5979 5.37521 13.4 5.64954L11.4976 8.28528C11.3141 8.5395 11.2144 8.8448 11.2134 9.15833L11.2037 12.4083C11.2026 12.7467 10.8734 12.9863 10.5513 12.8829L7.4566 11.8878C7.1582 11.7919 6.83704 11.7919 6.53864 11.8878L3.44391 12.8829C3.12182 12.9863 2.79259 12.7467 2.79156 12.4083L2.7818 9.15833C2.7808 8.8448 2.6811 8.5395 2.49762 8.28528L0.595276 5.64954C0.397362 5.37521 0.522941 4.98757 0.844299 4.88196L3.93219 3.86829C4.23021 3.77046 4.49022 3.58145 4.67535 3.32825L6.5943 0.7052Z" stroke="#FFA115"/>
</svg>
