<svg width="14" height="14" viewBox="0 0 14 14" fill="none" xmlns="http://www.w3.org/2000/svg">
<path d="M6.19039 0.4098C6.58987 -0.136556 7.40537 -0.136556 7.80485 0.409801L9.72323 3.03348C9.84665 3.20228 10.0199 3.32814 10.2186 3.39336L13.3066 4.40709C13.9497 4.61818 14.2017 5.39377 13.8055 5.94253L11.9031 8.57778C11.7807 8.74732 11.7145 8.95097 11.7139 9.16008L11.704 12.4103C11.702 13.0871 11.0422 13.5664 10.3979 13.3592L7.30375 12.3642C7.10468 12.3002 6.89055 12.3002 6.69148 12.3642L3.59733 13.3592C2.953 13.5664 2.29325 13.0871 2.2912 12.4103L2.28135 9.16008C2.28072 8.95097 2.21455 8.74732 2.09215 8.57778L0.189699 5.94253C-0.20647 5.39377 0.0455332 4.61818 0.688597 4.40708L3.77667 3.39336C3.97535 3.32814 4.14859 3.20228 4.27201 3.03348L6.19039 0.4098Z" fill="#FFA115"/>
</svg>
