<svg width="31" height="31" viewBox="0 0 31 31" fill="none" xmlns="http://www.w3.org/2000/svg">
<rect width="31" height="31" rx="15.5" fill="#FFCABD"/>
<path fill-rule="evenodd" clip-rule="evenodd" d="M8.41536 8.41666C8.2275 8.41666 8.04734 8.49128 7.9145 8.62412C7.78166 8.75696 7.70703 8.93713 7.70703 9.12499V19.0417C7.70703 20.0007 8.34241 20.8111 9.21507 21.076C9.34498 21.5045 9.60695 21.8811 9.96359 22.1519C10.3202 22.4227 10.7533 22.5739 11.201 22.584C11.6487 22.594 12.0881 22.4624 12.4565 22.2079C12.8249 21.9533 13.1036 21.5889 13.2526 21.1667H17.7448C17.8938 21.5889 18.1724 21.9533 18.5409 22.2079C18.9093 22.4624 19.3487 22.594 19.7964 22.584C20.2441 22.5739 20.6772 22.4227 21.0338 22.1519C21.3904 21.8811 21.6524 21.5045 21.7823 21.076C22.2187 20.9436 22.6009 20.6743 22.8725 20.308C23.144 19.9417 23.2906 19.4977 23.2904 19.0417V16.2083C23.2904 15.7432 23.1988 15.2827 23.0208 14.853C22.8428 14.4233 22.5819 14.0329 22.253 13.704C21.9242 13.3751 21.5337 13.1142 21.104 12.9362C20.6743 12.7583 20.2138 12.6667 19.7487 12.6667H16.9154V9.12499C16.9154 8.93713 16.8407 8.75696 16.7079 8.62412C16.5751 8.49128 16.3949 8.41666 16.207 8.41666H8.41536ZM17.7448 19.75H16.9154V14.0833H19.7487C20.3123 14.0833 20.8528 14.3072 21.2513 14.7057C21.6498 15.1042 21.8737 15.6447 21.8737 16.2083V19.0417C21.8737 19.2295 21.799 19.4096 21.6662 19.5424C21.4851 19.1631 21.1955 18.846 20.8342 18.6312C20.4728 18.4164 20.0559 18.3136 19.6361 18.3359C19.2164 18.3581 18.8126 18.5043 18.476 18.756C18.1393 19.0077 17.8849 19.3536 17.7448 19.75ZM10.7479 19.9575C10.8132 19.8899 10.8914 19.8359 10.9778 19.7988C11.0642 19.7617 11.1572 19.7421 11.2512 19.7413C11.3453 19.7405 11.4386 19.7584 11.5256 19.794C11.6127 19.8296 11.6918 19.8822 11.7583 19.9488C11.8248 20.0153 11.8774 20.0943 11.913 20.1814C11.9486 20.2684 11.9665 20.3617 11.9657 20.4558C11.9649 20.5498 11.9454 20.6428 11.9082 20.7292C11.8711 20.8156 11.8171 20.8938 11.7495 20.9591C11.6159 21.0881 11.437 21.1595 11.2512 21.1579C11.0655 21.1563 10.8879 21.0818 10.7565 20.9505C10.6252 20.8192 10.5507 20.6415 10.5491 20.4558C10.5475 20.2701 10.6189 20.0911 10.7479 19.9575ZM19.0404 20.4583C19.0404 20.2705 19.115 20.0903 19.2478 19.9575C19.3807 19.8246 19.5608 19.75 19.7487 19.75C19.9366 19.75 20.1167 19.8246 20.2496 19.9575C20.3824 20.0903 20.457 20.2705 20.457 20.4583C20.457 20.6462 20.3824 20.8264 20.2496 20.9592C20.1167 21.092 19.9366 21.1667 19.7487 21.1667C19.5608 21.1667 19.3807 21.092 19.2478 20.9592C19.115 20.8264 19.0404 20.6462 19.0404 20.4583Z" fill="#F05124"/>
</svg>
