<svg width="60" height="20" viewBox="0 0 60 20" fill="none" xmlns="http://www.w3.org/2000/svg">
<path d="M39.0805 0C34.8204 0 31.0132 2.27193 31.0132 6.46853C31.0132 11.2818 37.7652 11.6142 37.7652 14.0326C37.7652 15.0508 36.6312 15.9622 34.6937 15.9622C31.9447 15.9622 29.8901 14.6887 29.8901 14.6887L29.0108 18.9243C29.0108 18.9243 31.3778 20 34.5201 20C39.1778 20 42.8432 17.6169 42.8432 13.348C42.8432 8.26161 36.0631 7.93908 36.0631 5.69495C36.0631 4.89728 36.994 4.0236 38.9255 4.0236C41.1051 4.0236 42.8829 4.9498 42.8829 4.9498L43.7435 0.859464C43.7435 0.859464 41.8084 0 39.0799 0H39.0805ZM0.103303 0.308938L0 0.926195C0 0.926195 1.79219 1.26355 3.40661 1.93704C5.48529 2.70876 5.63303 3.15858 5.98318 4.55374L9.7976 19.6812H14.9111L22.7886 0.308938H17.6871L12.6252 13.4802L10.5598 2.31518C10.3706 1.03741 9.41081 0.30832 8.23664 0.30832H0.103904L0.103303 0.308938ZM24.8402 0.308938L20.8384 19.6812H25.7033L29.6907 0.308938H24.8402ZM51.973 0.308938C50.8 0.308938 50.1784 0.955235 49.7225 2.08409L42.5952 19.6812H47.6967L48.6835 16.7481H54.8985L55.4985 19.6812H60L56.0733 0.308938H51.973ZM52.6366 5.54296L54.149 12.8123H50.0979L52.6372 5.54296H52.6366Z" fill="#1434CB"/>
</svg>
