<svg width="48" height="48" viewBox="0 0 48 48" fill="none" xmlns="http://www.w3.org/2000/svg">
<path fill-rule="evenodd" clip-rule="evenodd" d="M23.9995 36.2924C23.7915 36.2924 23.584 36.2469 23.3914 36.1564L1.83002 25.9971C1.58202 25.8803 1.37217 25.6945 1.22514 25.4615C1.07811 25.2285 1 24.958 1 24.6817C1 24.4054 1.07811 24.1349 1.22514 23.9018C1.37217 23.6688 1.58202 23.483 1.83002 23.3663L9.78483 19.6181L11.2279 22.1417L5.83709 24.6817L23.9995 33.2393L42.1618 24.6817L36.7711 22.1417L38.214 19.6183L46.1684 23.3663C46.4168 23.4827 46.627 23.6684 46.7743 23.9014C46.9216 24.1344 47 24.4051 47 24.6815C47 24.958 46.9218 25.2287 46.7746 25.4618C46.6274 25.6948 46.4172 25.8806 46.1689 25.9971L24.6075 36.1564C24.4171 36.246 24.2095 36.2924 23.9995 36.2924ZM24.6075 44.8645L46.1689 34.7051C46.5039 34.5359 46.7603 34.2414 46.8835 33.8843C47.0068 33.5271 46.9871 33.1355 46.8287 32.7928C46.6703 32.45 46.3857 32.1832 46.0354 32.0491C45.6852 31.9151 45.297 31.9243 44.9533 32.0748L23.9995 41.9473L3.04609 32.0743C2.70246 31.9238 2.31421 31.9146 1.96396 32.0487C1.61371 32.1827 1.32911 32.4495 1.17072 32.7923C1.01232 33.135 0.992646 33.5266 1.11587 33.8838C1.23909 34.2409 1.49549 34.5354 1.8305 34.7046L23.3919 44.864C23.5823 44.9535 23.7897 44.9999 23.9997 45C24.2096 45.0001 24.4171 44.9538 24.6075 44.8645Z" fill="#F05124"/>
<path d="M25.7354 18.9187C26.1358 19.5925 25.9194 20.4664 25.2521 20.8707C24.5847 21.275 23.7192 21.0565 23.3188 20.3827C21.6419 17.5609 21.6419 14.6267 23.3188 11.8048C24.4602 9.8841 24.4602 8.07564 23.3188 6.15494C22.9184 5.4812 23.1348 4.60725 23.8021 4.20296C24.4695 3.79868 25.335 4.01721 25.7354 4.69096C27.4123 7.51282 27.4123 10.447 25.7354 13.2688C24.594 15.1896 24.594 16.998 25.7354 18.9187ZM18.6898 18.9187C19.0902 19.5925 18.8737 20.4664 18.2065 20.8707C17.5391 21.275 16.6735 21.0565 16.2731 20.3827C14.5962 17.5609 14.5962 14.6267 16.2731 11.8048C17.4145 9.8841 17.4145 8.07564 16.2731 6.15494C15.8727 5.4812 16.0891 4.60725 16.7564 4.20296C17.4238 3.79868 18.2894 4.01721 18.6898 4.69096C20.3666 7.51282 20.3666 10.447 18.6898 13.2688C17.5483 15.1896 17.5483 16.998 18.6898 18.9187ZM32.7811 18.9187C33.1815 19.5925 32.9651 20.4664 32.2978 20.8707C31.6304 21.275 30.7648 21.0565 30.3644 20.3827C28.6876 17.5609 28.6876 14.6267 30.3644 11.8048C31.5059 9.8841 31.5059 8.07564 30.3644 6.15494C29.964 5.4812 30.1805 4.60725 30.8477 4.20296C31.5151 3.79868 32.3807 4.01721 32.7811 4.69096C34.458 7.51282 34.458 10.447 32.7811 13.2688C31.6397 15.1896 31.6397 16.998 32.7811 18.9187Z" fill="#F05124"/>
</svg>
