<svg width="48" height="48" viewBox="0 0 48 48" fill="none" xmlns="http://www.w3.org/2000/svg">
<g clip-path="url(#clip0_81_11421)">
<path d="M22.5801 5.97804L21.584 6.97414L21.252 7.30519L40.6943 26.7476L41.0264 26.4165L42.0225 25.4204L48 31.398L42.6865 36.7105L46.6719 40.6948L40.6943 46.6724L36.709 42.687L31.3965 48.0005L25.4189 42.023L26.415 41.0269L26.7471 40.6939L7.30469 21.2515L6.97266 21.5845L5.97656 22.5806L0 16.603L5.3125 11.2905L1.32812 7.30519L7.30566 1.32863L11.29 5.313L16.6035 0.00050354L22.5801 5.97804ZM29.4033 42.023L31.3965 44.0152L44.0137 31.397L42.0215 29.4048L29.4033 42.023ZM38.7021 40.6948L40.6943 42.687L42.6865 40.6948L40.6943 38.7027L38.7021 40.6948ZM9.29688 19.2593L28.7402 38.7017L38.7012 28.7398L19.2588 9.29738L9.29688 19.2593ZM27.9814 29.9741L25.9883 31.9663L23.9961 29.9741L25.9883 27.981L27.9814 29.9741ZM33.958 27.981L31.9658 29.9741L29.9736 27.981L31.9658 25.9888L33.958 27.981ZM22.0039 23.9966L20.0117 25.9888L18.0195 23.9966L20.0117 22.0044L22.0039 23.9966ZM27.9814 22.0044L25.9883 23.9966L23.9961 22.0044L25.9883 20.0122L27.9814 22.0044ZM16.6025 3.98488L3.9834 16.603L5.97656 18.5952L18.5947 5.97707L16.6025 3.98488ZM22.0039 16.0269L20.0117 18.0191L18.0195 16.0269L20.0117 14.0347L22.0039 16.0269ZM5.3125 7.30519L7.30469 9.29738L9.29785 7.30519L7.30469 5.31203L5.3125 7.30519Z" fill="#F05124"/>
</g>
<defs>
<clipPath id="clip0_81_11421">
<rect width="48" height="48" fill="white"/>
</clipPath>
</defs>
</svg>
