<svg width="123" height="30" viewBox="0 0 123 30" fill="none" xmlns="http://www.w3.org/2000/svg">
<path d="M47.7156 17.5078C47.5256 17.6967 47.2501 17.8478 46.8892 17.9612C46.5282 18.0745 46.0057 18.1973 45.3218 18.3296C44.2578 18.5374 43.5264 18.8019 43.1274 19.123C42.7284 19.4442 42.5289 19.9071 42.5289 20.5116C42.5289 21.5507 43.1274 22.0702 44.3243 22.0702C44.7993 22.0702 45.2363 21.9947 45.6352 21.8435C46.0532 21.6735 46.4047 21.4562 46.6897 21.1917C46.9937 20.9084 47.2311 20.5872 47.4021 20.2282C47.5921 19.8504 47.6871 19.4537 47.6871 19.038L47.7156 17.5078ZM47.9721 24.7057C47.8581 24.3467 47.7821 23.5627 47.7441 23.0904C47.3071 23.5816 46.7277 23.9783 46.0057 24.2806C45.2838 24.564 44.4478 24.7057 43.4979 24.7057C41.883 24.7057 40.6956 24.3562 39.9356 23.6572C39.1947 22.9393 38.8242 22.0136 38.8242 20.88C38.8242 19.8787 38.9857 19.0853 39.3087 18.4996C39.6316 17.895 40.0781 17.4227 40.6481 17.0827C41.218 16.7426 41.8925 16.497 42.6714 16.3459C43.4694 16.1759 44.3338 16.0247 45.2648 15.8925C46.1957 15.7602 46.8227 15.5902 47.1456 15.3824C47.4686 15.1557 47.6301 14.7967 47.6301 14.3055C47.6301 13.8521 47.4116 13.5026 46.9747 13.257C46.5567 12.9925 45.9867 12.8603 45.2648 12.8603C44.4098 12.8603 43.7924 13.0492 43.4124 13.427C43.0514 13.8049 42.8234 14.3055 42.7284 14.929H39.2802C39.2992 14.2111 39.4131 13.5498 39.6221 12.9453C39.8501 12.3407 40.2016 11.8212 40.6766 11.3867C41.1705 10.9522 41.807 10.6215 42.5859 10.3948C43.3649 10.1492 44.3148 10.0264 45.4358 10.0264C46.5377 10.0264 47.4686 10.1492 48.2286 10.3948C49.0075 10.6404 49.625 10.9994 50.081 11.4717C50.5559 11.9251 50.8979 12.5013 51.1069 13.2003C51.3159 13.8804 51.4204 14.655 51.4204 15.5241V24.7057H47.9721Z" fill="#FAFAFA"/>
<path d="M53.0527 24.7057V5.29395H56.7575V24.7057H53.0527Z" fill="#FAFAFA"/>
<path d="M58.3984 24.7057V10.3948H62.1032V24.7057H58.3984ZM58.3984 8.72289V5.29395H62.1032V8.72289H58.3984Z" fill="#FAFAFA"/>
<path d="M76.4202 19.2931C76.3253 20.1054 76.0878 20.8422 75.7078 21.5035C75.3468 22.1647 74.8813 22.7315 74.3114 23.2038C73.7414 23.6761 73.086 24.0445 72.345 24.309C71.6231 24.5734 70.8346 24.7057 69.9797 24.7057C69.0297 24.7057 68.1558 24.5546 67.3578 24.2523C66.5789 23.9311 65.9044 23.4588 65.3345 22.8354C64.7645 22.193 64.318 21.409 63.9951 20.4833C63.6911 19.5387 63.5391 18.4429 63.5391 17.196C63.5391 15.9491 63.6911 14.8723 63.9951 13.9655C64.318 13.0586 64.7645 12.3218 65.3345 11.7551C65.9044 11.1694 66.5884 10.7349 67.3863 10.4515C68.2033 10.1681 69.1057 10.0264 70.0937 10.0264C71.0056 10.0264 71.832 10.1492 72.573 10.3948C73.3329 10.6404 73.9884 10.9994 74.5394 11.4717C75.1093 11.944 75.5558 12.5108 75.8788 13.172C76.2018 13.8332 76.3917 14.57 76.4487 15.3824H72.7155C72.6205 14.6645 72.326 14.1072 71.832 13.7104C71.3571 13.2948 70.7681 13.087 70.0652 13.087C69.6662 13.087 69.2957 13.1531 68.9537 13.2853C68.6118 13.4176 68.3078 13.6443 68.0418 13.9655C67.7948 14.2677 67.5953 14.6834 67.4433 15.2123C67.2913 15.7224 67.2153 16.3553 67.2153 17.111C67.2153 18.6413 67.4908 19.7748 68.0418 20.5116C68.5928 21.2484 69.2292 21.6168 69.9512 21.6168C70.6731 21.6168 71.2906 21.4184 71.8035 21.0217C72.3165 20.625 72.611 20.0488 72.687 19.2931H76.4202Z" fill="#FAFAFA"/>
<path d="M84.4131 21.6168C86.674 21.6168 87.8044 20.1999 87.8044 17.3661C87.8044 14.5511 86.674 13.1436 84.4131 13.1436C82.1523 13.1436 81.0218 14.5511 81.0218 17.3661C81.0218 20.1999 82.1523 21.6168 84.4131 21.6168ZM84.4131 24.7057C83.2732 24.7057 82.2568 24.5262 81.3638 24.1673C80.4709 23.8083 79.7109 23.3077 79.084 22.6653C78.476 22.023 78.0105 21.2484 77.6876 20.3416C77.3646 19.4348 77.2031 18.4429 77.2031 17.3661C77.2031 16.2703 77.3646 15.269 77.6876 14.3622C78.0295 13.4554 78.514 12.6808 79.141 12.0385C79.7679 11.3961 80.5184 10.9049 81.3923 10.5649C82.2853 10.2059 83.2922 10.0264 84.4131 10.0264C85.515 10.0264 86.503 10.2059 87.3769 10.5649C88.2509 10.9049 88.9918 11.3961 89.5998 12.0385C90.2267 12.6619 90.7017 13.427 91.0247 14.3339C91.3667 15.2407 91.5377 16.2514 91.5377 17.3661C91.5377 18.4807 91.3667 19.4914 91.0247 20.3983C90.7017 21.2862 90.2267 22.0513 89.5998 22.6937C88.9918 23.336 88.2414 23.8366 87.3484 24.1956C86.4745 24.5357 85.496 24.7057 84.4131 24.7057Z" fill="#FAFAFA"/>
<path d="M109.323 24.7057V15.8925C109.323 15.0423 109.123 14.3528 108.724 13.8238C108.325 13.2948 107.793 13.0303 107.129 13.0303C106.445 13.0303 105.875 13.3137 105.419 13.8804C104.982 14.4472 104.763 15.1557 104.763 16.0058V24.7057H101.058V15.9491C101.058 15.3824 101.02 14.9195 100.944 14.5606C100.868 14.2016 100.735 13.9182 100.545 13.7104C100.374 13.5026 100.146 13.3609 99.861 13.2853C99.576 13.1909 99.234 13.1436 98.8351 13.1436C97.3342 13.1436 96.5837 14.0505 96.5837 15.8641V24.7057H92.8789V10.3948H96.3557V12.4352C96.8307 11.5095 97.4006 10.8766 98.0656 10.5365C98.7306 10.1965 99.5285 10.0264 100.46 10.0264C100.935 10.0264 101.353 10.0642 101.714 10.1398C102.094 10.2154 102.426 10.3476 102.711 10.5365C103.015 10.7066 103.3 10.9333 103.566 11.2166C103.832 11.5 104.098 11.8401 104.364 12.2368C104.744 11.4622 105.248 10.9049 105.875 10.5649C106.502 10.2059 107.262 10.0264 108.154 10.0264C108.857 10.0264 109.503 10.1492 110.092 10.3948C110.681 10.6215 111.185 10.9522 111.603 11.3867C112.021 11.8023 112.344 12.2935 112.572 12.8603C112.819 13.427 112.942 14.0316 112.942 14.6739V24.7057H109.323Z" fill="#FAFAFA"/>
<path d="M27.9076 24.4308L16.5425 17.6683C16.1419 17.43 15.8931 17.0076 15.8828 16.5484L15.5904 3.51995C15.5592 2.12871 17.4404 1.61284 18.1503 2.81799L22.1323 9.57821C22.2495 9.77728 22.3128 10.0025 22.316 10.2323L22.3526 12.8757C22.3591 13.3431 22.6127 13.7736 23.0224 14.0128L25.3397 15.3656C25.5411 15.4832 25.7085 15.6495 25.8257 15.8486L29.8078 22.6088C30.5176 23.814 29.1212 25.1529 27.9076 24.4308Z" fill="#EF233C"/>
<path d="M14.1172 16.5484L14.4096 3.51995C14.4408 2.12871 12.5596 1.61284 11.8497 2.81799L7.86773 9.57822C7.75048 9.77728 7.68724 10.0025 7.68405 10.2323L7.64736 12.8757C7.64088 13.3431 7.38728 13.7736 6.97759 14.0128L4.66035 15.3656C4.45887 15.4832 4.29151 15.6495 4.17426 15.8486L0.192246 22.6088C-0.517625 23.814 0.878769 25.1529 2.09239 24.4308L13.4575 17.6683C13.8581 17.43 14.1069 17.0076 14.1172 16.5484Z" fill="#EF233C"/>
<path d="M14.417 19.067L2.75944 25.333C1.51459 26.0022 1.9994 27.8569 3.41914 27.8569H11.3832C11.6177 27.8569 11.8483 27.798 12.053 27.6858L14.4069 26.3953C14.8231 26.1671 15.3303 26.1671 15.7464 26.3953L18.1004 27.6858C18.305 27.798 18.5356 27.8569 18.7701 27.8569H26.7342C28.1539 27.8569 28.6387 26.0022 27.3939 25.333L15.7364 19.067C15.3254 18.8462 14.8279 18.8462 14.417 19.067Z" fill="#EF233C"/>
<path d="M119.117 21.1763H115.588V24.7057H119.117V21.1763Z" fill="#EF233C"/>
</svg>
