<svg width="150" height="35" viewBox="0 0 150 35" fill="none" xmlns="http://www.w3.org/2000/svg">
<g opacity="0.2">
<path d="M0 4.15594H7.79839V26.8183H10.504V4.15594H18.3322V1.56223H0V4.15594Z" fill="black"/>
<path d="M30.7062 8.01145C29.7712 7.60086 28.7466 7.40057 27.7718 7.45064C26.608 7.40057 25.4443 7.6309 24.3899 8.11159C23.3355 8.59228 22.3905 9.32332 21.6644 10.2346C20.1923 12.0472 19.4462 14.4707 19.4462 17.4449C19.4462 20.4692 20.2321 22.8627 21.7639 24.5651C23.3057 26.2775 25.4741 27.1488 28.2095 27.1488C29.1942 27.1488 30.179 27.0587 31.1637 26.8784C32.1584 26.6781 33.1432 26.3577 34.0682 25.9371L34.3567 25.8069V23.2332L33.6704 23.5236C32.7552 23.9142 31.7904 24.2146 30.8355 24.4249C30.0298 24.5651 29.1942 24.6352 28.3686 24.6352C26.3793 24.6352 24.8474 24.0744 23.7732 22.8426C22.7984 21.721 22.2712 20.0987 22.1916 18.0057H35.0729V16.2132C35.0729 13.5594 34.4164 11.4263 33.1233 9.85408C32.4767 9.06295 31.6412 8.43205 30.7062 8.01145ZM22.301 15.5823C22.5199 13.8097 23.0669 12.4278 23.9423 11.4664C24.4197 10.9456 24.9966 10.5451 25.6531 10.2647C26.2997 9.99428 27.0159 9.87411 27.7022 9.89413H28.2194C28.6969 9.93419 29.1644 10.0644 29.5921 10.2647C30.169 10.5351 30.6763 10.9557 31.0643 11.4764C31.8202 12.4678 32.238 13.8398 32.2977 15.5722H22.2911L22.301 15.5823Z" fill="black"/>
<path d="M47.1584 7.45064C44.7413 7.45064 42.8514 8.21173 41.5284 9.69385L41.2997 7.80114H38.982V35H41.5981V27.5994C41.5981 26.5579 41.5782 25.6767 41.5384 24.9156C42.8812 26.3877 44.7612 27.1288 47.1286 27.1288C48.2227 27.1788 49.3368 26.9685 50.3414 26.5179C51.3461 26.0672 52.2512 25.3863 52.9674 24.525C54.3699 22.8126 55.0861 20.3791 55.0861 17.3047C55.0861 14.1502 54.4097 11.6967 53.0768 10.0143C51.7141 8.30186 49.7247 7.43062 47.1683 7.43062L47.1584 7.45064ZM52.3606 17.3748C52.3606 19.7182 51.8832 21.5508 50.9482 22.8326C50.5105 23.4335 49.9336 23.9242 49.2671 24.2446C48.6007 24.5651 47.8646 24.7253 47.1186 24.6853H47.0987C45.1193 24.6853 43.7466 24.1545 42.9011 23.0629C42.0357 21.9514 41.5981 20.0186 41.5981 17.3348V16.804C41.5981 14.3205 42.0556 12.5279 42.9409 11.4764C43.8262 10.4349 45.2088 9.92418 47.1584 9.92418C50.6597 9.92418 52.3606 12.3577 52.3606 17.3748Z" fill="black"/>
<path d="M61.671 0H59.045V26.8183H61.671V0Z" fill="black"/>
<path d="M80.222 10.1044C78.73 8.3319 76.651 7.43062 74.0549 7.43062C71.4985 7.41059 69.3798 8.29185 67.8679 10.0544C66.3759 11.7969 65.6299 14.2303 65.6299 17.2647C65.6 19.0472 65.9283 20.7797 66.6245 22.412C67.2413 23.8541 68.2558 25.0658 69.5688 25.927C70.852 26.7282 72.3241 27.1488 73.8261 27.1488C73.8958 27.1488 73.9554 27.1488 74.0251 27.1488C76.6312 27.1488 78.72 26.2575 80.222 24.495C81.714 22.7525 82.47 20.319 82.47 17.2747C82.4601 14.2704 81.7041 11.8569 80.2319 10.1044H80.222ZM76.3526 24.1545C74.8904 24.8155 73.1995 24.8155 71.7373 24.1545C71.0012 23.824 70.3646 23.3433 69.8573 22.7625C68.8527 21.4807 68.3454 19.628 68.3454 17.2747C68.3454 14.9213 68.8527 13.0687 69.8474 11.8169C70.3447 11.196 70.9813 10.7053 71.6975 10.3748C72.3341 10.0844 73.0304 9.94421 73.7664 9.94421C73.856 9.94421 73.9554 9.94421 74.0549 9.94421C74.8407 9.90415 75.6464 10.0443 76.3725 10.3648C77.0987 10.6853 77.7452 11.176 78.2426 11.7868C79.2571 13.0687 79.7744 14.9113 79.7744 17.2647C79.7744 19.618 79.2671 21.4607 78.2724 22.7225C77.7452 23.3333 77.0987 23.804 76.3725 24.1345L76.3526 24.1545Z" fill="black"/>
<path d="M101.389 3.14449C99.718 1.76252 97.2312 1.06152 93.9985 1.06152H86.0907V27.319H92.0191V18.2461H93.5509C96.8035 18.2461 99.3698 17.485 101.18 15.9928C103.06 14.4506 104.015 12.2275 104.015 9.39342C104.005 6.67954 103.12 4.57654 101.389 3.14449ZM97.9872 9.52361C97.9872 10.7053 97.649 11.5365 96.9627 12.0472C96.1968 12.618 94.9037 12.9084 93.1132 12.9084H92.0191V6.37911H93.7598C95.3016 6.37911 96.4256 6.6495 97.0522 7.16023C97.3705 7.44063 97.6291 7.80115 97.7883 8.1917C97.9474 8.58226 98.0171 9.02289 97.9872 9.51359V9.52361Z" fill="black"/>
<path d="M123.521 9.103C123.521 6.39914 122.636 4.33619 120.885 2.99428C119.194 1.69242 116.747 1.06152 113.385 1.06152H105.597V27.319H111.515V17.6252H113.863L119.602 27.289H126.455L119.294 15.9728C122.099 14.4907 123.511 12.1774 123.511 9.09299L123.521 9.103ZM113.156 6.41917C114.688 6.41917 115.882 6.66953 116.598 7.15021C117.195 7.55079 117.483 8.24177 117.493 9.33333C117.523 9.75393 117.453 10.1745 117.294 10.5551C117.135 10.9356 116.896 11.2861 116.608 11.5365C115.971 12.0672 114.837 12.3376 113.246 12.3376H111.505L111.535 6.41917H113.156Z" fill="black"/>
<path d="M146.837 4.27611C144.698 1.8927 141.664 0.680973 137.805 0.680973H137.785C133.896 0.680973 130.832 1.87268 128.693 4.21602C126.565 6.53934 125.49 9.87411 125.49 14.1202C125.481 18.3562 126.535 21.691 128.644 24.0443C130.772 26.4278 133.836 27.6295 137.745 27.6295C141.614 27.6295 144.668 26.4077 146.807 24.0143C148.925 21.6509 150 18.3362 150 14.1502C150.02 9.95422 148.955 6.62947 146.837 4.26609V4.27611ZM133.209 7.9814C134.224 6.68956 135.716 6.05866 137.775 6.05866H137.795C139.814 6.05866 141.276 6.67954 142.261 7.97139C143.295 9.32332 143.823 11.3963 143.823 14.1302C143.823 16.8941 143.286 18.9871 142.241 20.329C141.227 21.6309 139.764 22.2318 137.666 22.2418C135.656 22.2418 134.194 21.6209 133.209 20.329C132.165 18.9671 131.628 16.8841 131.628 14.1502C131.628 11.3963 132.155 9.32332 133.209 7.9814Z" fill="black"/>
</g>
</svg>
