<svg width="151" height="35" viewBox="0 0 151 35" fill="none" xmlns="http://www.w3.org/2000/svg">
<path d="M0 4.15H7.84V26.78H10.56V4.15H18.43V1.56H0V4.15Z" fill="#F05124"/>
<path d="M30.87 8C29.93 7.59 28.9 7.39 27.92 7.44C26.75 7.39 25.58 7.62 24.52 8.1C23.46 8.58 22.51 9.31 21.78 10.22C20.3 12.03 19.55 14.45 19.55 17.42C19.55 20.44 20.34 22.83 21.88 24.53C23.43 26.24 25.61 27.11 28.36 27.11C29.35 27.11 30.34 27.02 31.33 26.84C32.33 26.64 33.32 26.32 34.25 25.9L34.54 25.77V23.2L33.85 23.49C32.93 23.88 31.96 24.18 31 24.39C30.19 24.53 29.35 24.6 28.52 24.6C26.52 24.6 24.98 24.04 23.9 22.81C22.92 21.69 22.39 20.07 22.31 17.98H35.26V16.19C35.26 13.54 34.6 11.41 33.3 9.84C32.65 9.05 31.81 8.42 30.87 8ZM22.42 15.56C22.64 13.79 23.19 12.41 24.07 11.45C24.55 10.93 25.13 10.53 25.79 10.25C26.44 9.98 27.16 9.86 27.85 9.88H28.37C28.85 9.92 29.32 10.05 29.75 10.25C30.33 10.52 30.84 10.94 31.23 11.46C31.99 12.45 32.41 13.82 32.47 15.55H22.41L22.42 15.56Z" fill="#F05124"/>
<path d="M47.41 7.44C44.98 7.44 43.08 8.2 41.75 9.68L41.52 7.79H39.19V34.95H41.82V27.56C41.82 26.52 41.8 25.64 41.76 24.88C43.11 26.35 45 27.09 47.38 27.09C48.48 27.14 49.6 26.93 50.61 26.48C51.62 26.03 52.53 25.35 53.25 24.49C54.66 22.78 55.38 20.35 55.38 17.28C55.38 14.13 54.7 11.68 53.36 10C51.99 8.29 49.99 7.42 47.42 7.42L47.41 7.44ZM52.64 17.35C52.64 19.69 52.16 21.52 51.22 22.8C50.78 23.4 50.2 23.89 49.53 24.21C48.86 24.53 48.12 24.69 47.37 24.65H47.35C45.36 24.65 43.98 24.12 43.13 23.03C42.26 21.92 41.82 19.99 41.82 17.31V16.78C41.82 14.3 42.28 12.51 43.17 11.46C44.06 10.42 45.45 9.91 47.41 9.91C50.93 9.91 52.64 12.34 52.64 17.35Z" fill="#F05124"/>
<path d="M62 0H59.36V26.78H62V0Z" fill="#F05124"/>
<path d="M80.65 10.09C79.15 8.32 77.06 7.42 74.45 7.42C71.88 7.4 69.75 8.28 68.23 10.04C66.73 11.78 65.98 14.21 65.98 17.24C65.95 19.02 66.28 20.75 66.98 22.38C67.6 23.82 68.62 25.03 69.94 25.89C71.23 26.69 72.71 27.11 74.22 27.11C74.29 27.11 74.35 27.11 74.42 27.11C77.04 27.11 79.14 26.22 80.65 24.46C82.15 22.72 82.91 20.29 82.91 17.25C82.9 14.25 82.14 11.84 80.66 10.09H80.65ZM76.76 24.12C75.29 24.78 73.59 24.78 72.12 24.12C71.38 23.79 70.74 23.31 70.23 22.73C69.22 21.45 68.71 19.6 68.71 17.25C68.71 14.9 69.22 13.05 70.22 11.8C70.72 11.18 71.36 10.69 72.08 10.36C72.72 10.07 73.42 9.93 74.16 9.93C74.25 9.93 74.35 9.93 74.45 9.93C75.24 9.89 76.05 10.03 76.78 10.35C77.51 10.67 78.16 11.16 78.66 11.77C79.68 13.05 80.2 14.89 80.2 17.24C80.2 19.59 79.69 21.43 78.69 22.69C78.16 23.3 77.51 23.77 76.78 24.1L76.76 24.12Z" fill="#F05124"/>
<path d="M101.93 3.14C100.25 1.76 97.75 1.06 94.5 1.06H86.55V27.28H92.51V18.22H94.05C97.32 18.22 99.9 17.46 101.72 15.97C103.61 14.43 104.57 12.21 104.57 9.38C104.56 6.67 103.67 4.57 101.93 3.14ZM98.51 9.51C98.51 10.69 98.17 11.52 97.48 12.03C96.71 12.6 95.41 12.89 93.61 12.89H92.51V6.37H94.26C95.81 6.37 96.94 6.64 97.57 7.15C97.89 7.43 98.15 7.79 98.31 8.18C98.47 8.57 98.54 9.01 98.51 9.5V9.51Z" fill="#262626"/>
<path d="M124.18 9.09C124.18 6.39 123.29 4.33 121.53 2.99C119.83 1.69 117.37 1.06 113.99 1.06H106.16V27.28H112.11V17.6H114.47L120.24 27.25H127.13L119.93 15.95C122.75 14.47 124.17 12.16 124.17 9.08L124.18 9.09ZM113.76 6.41C115.3 6.41 116.5 6.66 117.22 7.14C117.82 7.54 118.11 8.23 118.12 9.32C118.15 9.74 118.08 10.16 117.92 10.54C117.76 10.92 117.52 11.27 117.23 11.52C116.59 12.05 115.45 12.32 113.85 12.32H112.1L112.13 6.41H113.76Z" fill="#262626"/>
<path d="M147.62 4.27C145.47 1.89 142.42 0.68 138.54 0.68H138.52C134.61 0.68 131.53 1.87 129.38 4.21C127.24 6.53 126.16 9.86 126.16 14.1C126.15 18.33 127.21 21.66 129.33 24.01C131.47 26.39 134.55 27.59 138.48 27.59C142.37 27.59 145.44 26.37 147.59 23.98C149.72 21.62 150.8 18.31 150.8 14.13C150.82 9.94 149.75 6.62 147.62 4.26V4.27ZM133.92 7.97C134.94 6.68 136.44 6.05 138.51 6.05H138.53C140.56 6.05 142.03 6.67 143.02 7.96C144.06 9.31 144.59 11.38 144.59 14.11C144.59 16.87 144.05 18.96 143 20.3C141.98 21.6 140.51 22.2 138.4 22.21C136.38 22.21 134.91 21.59 133.92 20.3C132.87 18.94 132.33 16.86 132.33 14.13C132.33 11.38 132.86 9.31 133.92 7.97Z" fill="#262626"/>
</svg>
