<svg width="126" height="29" viewBox="0 0 126 29" fill="none" xmlns="http://www.w3.org/2000/svg">
<path d="M0 3.44349H6.55065V22.2209H8.82333V3.44349H15.399V1.29442H0V3.44349Z" fill="white"/>
<path d="M25.7932 6.63805C25.0078 6.29785 24.1472 6.1319 23.3283 6.17339C22.3508 6.1319 21.3732 6.32275 20.4875 6.72103C19.6018 7.11931 18.8081 7.72504 18.1981 8.48011C16.9615 9.98197 16.3349 11.99 16.3349 14.4544C16.3349 16.9602 16.9949 18.9433 18.2817 20.3539C19.5768 21.7728 21.3982 22.4947 23.696 22.4947C24.5232 22.4947 25.3503 22.42 26.1775 22.2707C27.0131 22.1047 27.8403 21.8392 28.6173 21.4907L28.8596 21.3828V19.2504L28.2831 19.491C27.5144 19.8146 26.7039 20.0635 25.9018 20.2378C25.225 20.3539 24.5232 20.412 23.8297 20.412C22.1586 20.412 20.8718 19.9474 19.9695 18.9268C19.1506 17.9974 18.7078 16.6532 18.6409 14.919H29.4612V13.4338C29.4612 11.2349 28.9098 9.46753 27.8236 8.16481C27.2805 7.5093 26.5786 6.98655 25.7932 6.63805ZM18.7329 12.911C18.9167 11.4423 19.3762 10.2973 20.1115 9.50072C20.5126 9.06924 20.9972 8.73734 21.5486 8.50501C22.0917 8.28097 22.6933 8.1814 23.2698 8.198H23.7043C24.1054 8.23119 24.4981 8.33906 24.8574 8.50501C25.342 8.72904 25.7681 9.07754 26.094 9.50901C26.729 10.3305 27.0799 11.4672 27.1301 12.9027H18.7245L18.7329 12.911Z" fill="white"/>
<path d="M39.6131 6.17339C37.5827 6.17339 35.9952 6.80401 34.8839 8.03205L34.6917 6.46381H32.7449V29H34.9424V22.8681C34.9424 22.0051 34.9257 21.275 34.8922 20.6443C36.0202 21.8641 37.5994 22.4781 39.588 22.4781C40.5071 22.5196 41.4429 22.3454 42.2868 21.972C43.1307 21.5986 43.891 21.0343 44.4926 20.3207C45.6707 18.9019 46.2723 16.8856 46.2723 14.3382C46.2723 11.7245 45.7042 9.69156 44.5845 8.29757C43.4398 6.87868 41.7688 6.1568 39.6214 6.1568L39.6131 6.17339ZM43.9829 14.3963C43.9829 16.3379 43.5819 17.8564 42.7965 18.9185C42.4288 19.4163 41.9442 19.8229 41.3844 20.0884C40.8246 20.3539 40.2063 20.4867 39.5796 20.4535H39.5629C37.9002 20.4535 36.7471 20.0137 36.0369 19.1093C35.31 18.1883 34.9424 16.5868 34.9424 14.3631V13.9233C34.9424 11.8655 35.3267 10.3803 36.0704 9.50901C36.814 8.64607 37.9754 8.22289 39.6131 8.22289C42.5542 8.22289 43.9829 10.2392 43.9829 14.3963Z" fill="white"/>
<path d="M51.8036 0H49.5978V22.2209H51.8036V0Z" fill="white"/>
<path d="M67.3865 8.37225C66.1332 6.90358 64.3869 6.1568 62.2061 6.1568C60.0588 6.1402 58.2791 6.87039 57.009 8.33076C55.7557 9.77454 55.1291 11.7908 55.1291 14.305C55.104 15.782 55.3797 17.2175 55.9646 18.57C56.4827 19.7648 57.3349 20.7688 58.4378 21.4824C59.5157 22.1462 60.7523 22.4947 62.0139 22.4947C62.0724 22.4947 62.1226 22.4947 62.181 22.4947C64.3702 22.4947 66.1248 21.7562 67.3865 20.2959C68.6398 18.8521 69.2748 16.8358 69.2748 14.3133C69.2664 11.824 68.6314 9.82432 67.3948 8.37225H67.3865ZM64.1362 20.0137C62.908 20.5614 61.4876 20.5614 60.2593 20.0137C59.641 19.7399 59.1063 19.3416 58.6801 18.8604C57.8362 17.7983 57.4101 16.2632 57.4101 14.3133C57.4101 12.3634 57.8362 10.8283 58.6718 9.79113C59.0895 9.27668 59.6243 8.8701 60.2259 8.59628C60.7606 8.35565 61.3455 8.23948 61.9638 8.23948C62.039 8.23948 62.1226 8.23948 62.2061 8.23948C62.8662 8.2063 63.543 8.32246 64.1529 8.58798C64.7629 8.85351 65.306 9.26009 65.7238 9.76624C66.576 10.8283 67.0105 12.3551 67.0105 14.305C67.0105 16.2549 66.5844 17.7817 65.7488 18.8272C65.306 19.3333 64.7629 19.7233 64.1529 19.9971L64.1362 20.0137Z" fill="white"/>
<path d="M85.1668 2.60544C83.7631 1.46037 81.6742 0.879542 78.9587 0.879542H72.3162V22.6358H77.296V15.1182H78.5827C81.315 15.1182 83.4707 14.4876 84.9914 13.2512C86.5705 11.9734 87.3727 10.1313 87.3727 7.78312C87.3643 5.53448 86.6207 3.79199 85.1668 2.60544ZM82.3093 7.89099C82.3093 8.8701 82.0252 9.5588 81.4487 9.98197C80.8053 10.4549 79.7191 10.6956 78.2151 10.6956H77.296V5.28555H78.7582C80.0533 5.28555 80.9975 5.50959 81.5238 5.93276C81.7912 6.16509 82.0085 6.46381 82.1422 6.78741C82.2758 7.11102 82.3343 7.47611 82.3093 7.88269V7.89099Z" fill="white"/>
<path d="M103.758 7.54249C103.758 5.30215 103.014 3.59285 101.543 2.48097C100.123 1.40229 98.0676 0.879542 95.2435 0.879542H88.7012V22.6358H93.6726V14.6037H95.6445L100.466 22.6109H106.222L100.207 13.2346C102.563 12.0066 103.749 10.0898 103.749 7.53419L103.758 7.54249ZM95.0513 5.31874C96.338 5.31874 97.3407 5.52618 97.9423 5.92446C98.4436 6.25637 98.6859 6.8289 98.6942 7.73333C98.7193 8.08183 98.6608 8.43033 98.5271 8.74564C98.3934 9.06094 98.1929 9.35136 97.9506 9.5588C97.4159 9.99857 96.4633 10.2226 95.1265 10.2226H93.6643L93.6893 5.31874H95.0513Z" fill="white"/>
<path d="M123.343 3.54306C121.546 1.56824 118.998 0.564235 115.756 0.564235H115.739C112.472 0.564235 109.899 1.55165 108.102 3.49328C106.314 5.41831 105.412 8.1814 105.412 11.6996C105.404 15.2094 106.289 17.9725 108.061 19.9225C109.849 21.8973 112.422 22.893 115.706 22.893C118.956 22.893 121.521 21.8807 123.318 19.8976C125.097 17.9393 126 15.1928 126 11.7245C126.016 8.24778 125.122 5.49299 123.343 3.53476V3.54306ZM111.896 6.61316C112.748 5.54278 114.001 5.02003 115.731 5.02003H115.748C117.444 5.02003 118.672 5.53448 119.499 6.60486C120.368 7.72504 120.811 9.44263 120.811 11.7079C120.811 13.998 120.36 15.7322 119.483 16.8441C118.63 17.9227 117.402 18.4206 115.639 18.4289C113.951 18.4289 112.723 17.9144 111.896 16.8441C111.018 15.7156 110.567 13.9897 110.567 11.7245C110.567 9.44263 111.01 7.72504 111.896 6.61316Z" fill="white"/>
</svg>
